<svg width="50" height="52" viewBox="0 0 50 52" fill="none" xmlns="http://www.w3.org/2000/svg">
<path fill-rule="evenodd" clip-rule="evenodd" d="M2.15924 27.1805C2.06237 28.6632 2.14803 30.4402 2.14754 31.9556C2.14722 33.5722 2.14754 35.1888 2.14754 36.8053C2.14754 38.4572 1.95054 45.2182 2.35006 46.2651C2.84353 47.5579 3.8503 47.8942 5.536 47.8939C10.3442 47.8928 15.2333 47.9462 20.0227 47.8998L19.5729 50.6468C18.7583 50.7047 17.1303 50.5287 16.8692 50.8071C16.6145 51.0785 16.7867 51.3004 16.9924 51.4655C17.2377 51.5949 30.1807 51.5112 31.6295 51.5125C31.9628 51.5128 32.5283 51.6148 32.7461 51.3749C33.005 51.0894 32.7942 50.7141 32.448 50.6626C31.7966 50.5656 30.6503 50.7671 30.0418 50.6268L29.5624 47.9022L43.9929 47.8931C44.8392 47.8869 45.3501 47.93 46.0797 47.5755C46.5851 47.3299 47.0395 46.8824 47.2638 46.2823C47.6193 45.3315 47.4436 38.3865 47.446 36.8053C47.4509 33.6265 47.374 30.3734 47.447 27.2049C47.6778 27.048 47.8594 26.9702 48.1103 26.787C48.3577 26.6064 48.5157 26.4188 48.7132 26.2217C49.5925 25.3441 49.7086 23.7252 49.575 22.4712C49.51 21.8617 47.7679 18.5929 47.1892 17.9692C46.2221 16.9269 44.9709 17.179 43.3099 17.179L6.42412 17.1809C4.76768 17.1783 3.6065 16.8953 2.51504 17.866C1.76736 18.531 1.3298 19.6396 0.755551 20.7603C0.653151 20.9601 0.0834497 22.1494 0.0572809 22.3264C-0.125901 23.5648 0.122134 25.2256 0.919066 26.1186C1.14077 26.367 1.2799 26.4951 1.50567 26.6994C1.76752 26.9365 1.92567 26.9874 2.15941 27.1803L2.15924 27.1805ZM21.2572 25.3827C20.4115 27.7088 16.0918 28.8009 14.2715 25.4148C13.9284 25.9142 13.7379 26.4239 12.9914 26.9146C11.2631 28.0504 8.96283 27.6424 7.82407 26.2492C7.58904 25.9615 7.47835 25.7679 7.26364 25.4217C6.62859 26.6443 6.10896 26.9635 4.73761 27.4474C4.66479 28.1613 4.67861 43.2097 4.75061 43.5463C4.90177 44.2519 5.56949 44.288 6.35569 44.2888C18.5697 44.3023 31.072 44.1545 43.2416 44.2893C45.3379 44.3125 44.9059 43.2599 44.9111 41.3819L44.9106 32.0921C44.9106 31.3179 44.9112 30.5438 44.9111 29.7696C44.9111 29.1294 44.9704 28.0876 44.8959 27.4989C43.8667 27.1722 42.7647 26.53 42.3489 25.4672C42.1624 25.7293 42.0009 26.0045 41.7818 26.257C40.0723 28.2269 37.1898 27.7515 35.9842 26.3039C35.7575 26.0317 35.6141 25.7489 35.3862 25.4482C34.5804 26.7681 33.5689 27.6171 31.8331 27.601C30.38 27.5875 28.7486 26.4866 28.3762 25.3573C27.7101 26.5815 26.7536 27.5576 24.8673 27.5727C23.9989 27.5797 23.2663 27.3343 22.6604 26.9274C21.8121 26.3579 21.6473 25.8878 21.2573 25.3827H21.2572ZM33.0293 29.6015C31.4199 29.68 29.9171 30.6054 28.9815 31.7022C28.4879 32.2808 28.1186 32.9211 27.8607 33.6618C27.5546 34.5401 27.447 35.3901 27.5237 36.3957C27.7625 39.5273 30.7514 42.244 34.287 41.8543C36.0294 41.6621 37.5847 40.6428 38.2466 39.7297C39.235 38.3658 39.8928 36.9771 39.664 35.079C39.2615 31.742 36.7075 29.4222 33.0294 29.6017L33.0293 29.6015ZM46.5742 27.4994L45.7702 27.5898C45.825 32.2794 45.7641 37.2532 45.7582 41.9968C45.7572 42.7251 45.8432 43.5661 45.539 44.1511C45.2812 44.6469 44.8039 45.0449 44.0447 45.1091C42.7288 45.2201 36.3226 45.114 34.4299 45.1184C26.4433 45.1371 18.3527 45.0542 10.3857 45.1181C8.84352 45.1304 7.06778 45.1957 5.54771 45.114C4.7906 45.0734 4.34134 44.6597 4.07607 44.2007C3.7466 43.6307 3.85388 42.7042 3.85453 41.9968C3.85583 40.5227 3.91435 27.9001 3.82576 27.5958C3.64664 27.5132 3.27426 27.5226 3.01956 27.5223C3.08994 32.5901 3.00477 37.8441 3.01696 42.953C3.02119 44.6966 2.67433 46.4099 4.21163 46.9315C5.15225 47.2506 12.7916 47.0793 14.4157 47.0822L40.2358 47.0812C41.3662 47.0799 44.427 47.1924 45.322 46.9344C46.8898 46.4826 46.6026 44.7574 46.6026 43.0897C46.6023 37.9431 46.6639 32.6075 46.574 27.4994H46.5742ZM12.1091 33.6632C11.3699 33.889 11.3668 33.6221 10.8265 34.2442C10.4229 34.7089 10.507 35.0949 10.5083 35.7808C10.5105 37.033 10.5078 38.2854 10.5083 39.5376C10.5084 40.1118 10.4379 40.7565 10.6984 41.2013C10.906 41.5558 11.3452 41.889 11.8884 41.9406L19.3984 41.9339C19.9617 41.8608 20.3274 41.5604 20.5405 41.2168C20.8211 40.7641 20.7546 40.1354 20.7544 39.5377C20.7543 38.2854 20.7526 37.0332 20.7526 35.7808C20.7528 34.3553 20.4989 33.8425 19.1128 33.6837C19.0157 32.1373 19.3007 31.4689 18.421 30.2793C17.1186 28.5176 14.6293 28.5489 13.3802 29.6903C13.2391 29.8193 12.9473 30.1169 12.8423 30.2475C12.0524 31.2285 12.1562 32.2339 12.1091 33.6634V33.6632ZM11.753 34.6091C11.2368 34.8634 11.3627 35.4159 11.3629 36.054L11.3658 39.8113C11.3655 40.0727 11.3201 40.4473 11.4417 40.6742C11.5194 40.8192 11.7637 41.0354 11.9742 41.0789C12.3994 41.1669 19.3216 41.1128 19.4834 41.0424C19.9736 40.829 19.9128 40.197 19.9117 39.606L19.9118 35.8491C19.9149 35.1862 19.9323 34.6128 19.2688 34.5553C18.5816 34.4958 11.9498 34.5119 11.7528 34.6089L11.753 34.6091ZM35.9689 4.32759C34.3114 4.64552 33.9751 6.33106 34.8994 7.30386C35.4465 7.87973 35.7778 7.88542 36.7521 7.88607C37.5945 7.88656 38.4371 7.8838 39.2795 7.88461C41.0082 7.8864 42.4585 8.08275 43.0544 6.69108C43.5329 5.5733 42.9619 3.85948 40.995 3.93538C40.6447 2.97348 39.6688 2.12973 38.3292 2.24107C37.1843 2.33616 36.138 3.27271 35.9688 4.32759H35.9689ZM34.6441 9.37835C30.881 9.79299 31.4342 15.8586 35.442 15.2776C36.9424 15.0601 38.095 13.6731 37.8741 11.9234C37.6761 10.3552 36.4426 9.18005 34.6441 9.37819V9.37835ZM21.6855 22.171L27.9216 22.1753L27.5439 18.0092L21.9431 18.0071L21.6856 22.1712L21.6855 22.171ZM14.7551 22.1824L20.8854 22.1792L21.1377 18.0074L15.6551 18.0068C15.283 19.3498 14.8682 20.6965 14.7551 22.1826V22.1824ZM28.8084 22.1489L34.9007 22.1774C34.8053 21.3156 34.2685 18.7432 33.9515 18.0284L28.4344 18.009L28.8086 22.1489H28.8084ZM42.6093 22.1808L48.5477 22.1727C48.2225 21.2621 47.1001 18.879 46.1467 18.265C45.6087 17.9187 44.9213 18.0115 44.1975 18.0087L40.9381 18.0149C41.4927 19.345 42.1196 20.7665 42.6093 22.1808ZM7.84585 22.1787L13.9109 22.172C14.1574 20.6306 14.3884 19.4517 14.7839 18.0071L9.53952 18.0035C9.39876 18.5529 8.90854 19.4688 8.6644 20.0479C8.43864 20.5837 7.95622 21.6392 7.84585 22.1785V22.1787ZM1.04308 22.1738L6.90166 22.1795C6.96083 22.0997 8.53177 18.2714 8.60118 18.0095C7.62854 17.9942 6.64599 18.0032 5.67221 18.0029C3.63023 18.0022 3.17154 17.8883 1.98337 20.1963C1.76525 20.6201 1.13118 21.8112 1.04308 22.1738ZM35.7459 22.1741L41.716 22.1738C41.539 21.5194 40.2818 18.4183 39.9624 18.0125L34.8521 18.0113C35.1395 19.3506 35.5871 20.7337 35.7459 22.1741ZM20.8789 47.9048L20.4045 50.6464C23.1888 50.7026 26.371 50.6624 29.2036 50.6574L28.7088 47.9149C27.2137 47.825 23.1568 47.8874 21.2461 47.9009L20.8788 47.9048H20.8789ZM38.3453 3.11797C37.5815 3.22281 37.0385 3.74017 36.8301 4.36059C36.6555 4.88039 36.8259 5.05821 36.2121 5.14501C35.7409 5.21148 35.4987 5.35354 35.3391 5.6718C35.1483 6.05214 35.25 6.458 35.4886 6.71725C35.7346 6.9843 36.0835 7.02705 36.5466 7.02851C37.4801 7.03128 38.4144 7.02754 39.3478 7.02803C40.0235 7.02851 41.3989 7.16586 41.8981 6.83574C42.4809 6.45036 42.542 5.40767 41.8943 4.95922C41.4766 4.6699 41.2195 4.84528 40.7102 4.79376C40.1834 4.74044 40.2829 4.41244 40.0859 4.02364C39.8296 3.5175 39.1884 3.00224 38.3454 3.11797H38.3453ZM27.9279 23.0179L21.6924 23.0167C21.638 24.3972 21.8135 24.8602 22.4686 25.6794C23.4258 26.8766 25.2176 27.1642 26.6936 26.1266C26.9196 25.9678 26.9584 25.8566 27.1372 25.6871C27.8842 24.9786 27.9595 24.2923 27.9281 23.0179H27.9279ZM34.9539 23.0208L28.7849 23.0219C28.8185 24.3209 28.8964 24.8445 29.526 25.6599C29.9082 26.1549 30.8379 26.76 31.8356 26.7948C32.9512 26.8338 33.6958 26.2222 34.1839 25.6988C34.9497 24.8776 34.948 24.3691 34.954 23.0208H34.9539ZM13.8605 23.0208L7.71631 23.0195C7.66056 24.1256 7.84228 25.0909 8.44286 25.7029C8.94495 26.2145 9.67394 26.7914 10.7968 26.7735C11.9709 26.7546 12.4719 26.2378 13.1037 25.6612C13.755 25.0668 13.8655 24.1228 13.8605 23.0209V23.0208ZM14.7026 23.349C14.7071 24.51 14.9475 25.1613 15.5226 25.795C16.7524 27.1504 18.9588 27.0449 20.1109 25.6336C20.7071 24.9032 20.8625 24.2572 20.8537 23.0143L14.7045 23.0192L14.7026 23.3491V23.349ZM41.9293 23.0232L35.8046 23.0193C35.8293 24.324 35.8522 24.8455 36.5482 25.6697C37.0123 26.2192 37.7551 26.761 38.8701 26.7584C39.9783 26.7559 40.6863 26.1975 41.1894 25.6695C41.8547 24.9714 41.9051 24.1734 41.9293 23.0232ZM48.7411 23.031L42.7748 23.0177C42.7446 24.2684 42.8286 24.9197 43.4911 25.6942C44.9766 27.4303 47.1507 26.8458 48.0344 25.685C48.681 24.8355 48.7272 24.3549 48.7413 23.0312L48.7411 23.031ZM6.85908 23.0094L0.878918 23.0169C0.820892 24.1433 1.00099 24.9826 1.59263 25.6559C2.97357 27.2272 4.88081 27.0739 6.12115 25.7121C6.76399 25.0064 6.8698 24.188 6.85908 23.0094ZM12.9992 33.6927L18.2152 33.6949C18.698 29.3028 14.9641 28.9647 13.4902 30.8893C12.9774 31.559 12.8843 32.7143 12.9993 33.6927H12.9992ZM39.1919 11.1219C39.1919 11.4046 39.247 14.3277 39.15 14.5526C39.1261 14.6079 38.4412 15.1667 39.2082 15.219L40.4962 15.2007C40.5977 14.2809 40.155 15.3904 40.1625 13.6492L40.1695 13.1153C41.0751 13.0467 42.8109 13.2959 43.0266 11.584C43.3281 9.19224 40.8242 9.45929 39.2794 9.45994C38.4503 9.46027 39.053 10.0111 39.0691 10.0319C39.2703 10.2917 39.1921 10.7715 39.1921 11.1219H39.1919ZM26.4542 10.917L26.4552 13.9225C26.4552 14.9154 26.3143 14.4528 26.1654 14.8376C25.9676 15.3484 26.6158 15.2064 26.9158 15.2075L27.7659 15.1963C27.8296 14.5591 27.5821 14.8359 27.479 14.4546L27.4624 12.5404L29.8989 12.5371C29.8971 13.0296 30.0328 14.2828 29.7464 14.6367C29.5945 14.8244 29.4664 14.8413 29.6481 15.1633C29.8896 15.2667 30.9177 15.2229 31.1872 15.187C31.3045 14.5996 30.913 14.9492 30.913 14.1276L30.9102 10.3076C30.9735 9.6927 32.0059 9.47847 30.1229 9.46092L29.7396 9.50269C29.2343 9.67661 29.9009 9.92318 29.8997 10.5073L29.888 11.827L27.4855 11.8332C27.4459 11.5879 27.4337 10.4805 27.4789 10.2431C27.5569 9.83444 27.7693 9.99372 27.7498 9.68555C27.7282 9.34633 27.2654 9.47067 26.6426 9.47051C26.1387 9.47035 25.9363 9.53292 26.2874 9.96983C26.5473 10.2933 26.4553 10.4366 26.4542 10.9171V10.917ZM6.71702 12.9662C6.71653 13.2721 6.75993 14.3786 6.66029 14.5723C6.50701 14.8706 6.33651 14.7088 6.45858 15.1802C7.05071 15.2064 8.51974 15.4247 7.87153 14.6656C7.64967 14.4057 7.69453 14.5003 7.69193 14.0592L7.69144 12.5367L10.1666 12.5349C10.1643 12.9934 10.2685 14.4094 10.0392 14.6732C9.82803 14.9159 9.79357 14.7581 9.88524 15.1781C10.1479 15.2286 11.1711 15.2707 11.4097 15.1675C11.633 14.8116 11.3882 14.8012 11.2668 14.6112C11.1279 14.3938 11.1721 14.0694 11.1739 13.7861L11.1776 10.5756C11.181 9.87361 11.2953 10.2036 11.445 9.84142C11.6394 9.37103 11.0532 9.46953 10.5216 9.46937C9.25442 9.46921 10.1638 9.75008 10.1635 10.4389L10.157 11.841L7.71013 11.8238C7.70509 11.4135 7.61992 10.3006 7.80571 10.041C8.27285 9.38875 7.96841 9.46775 7.03787 9.46742C6.66988 9.46612 6.19413 9.39395 6.49645 9.87328C6.74822 10.2725 6.73148 10.0656 6.72222 10.7094C6.71133 11.4615 6.71783 12.214 6.71653 12.9662H6.71702ZM15.645 15.1701C15.8981 15.2696 16.99 15.2389 17.2239 15.1566C17.2959 14.7025 17.0739 14.8691 16.9346 14.5533C16.841 14.3408 16.8988 13.9753 16.8996 13.7173C16.9042 12.4692 16.9604 13.1324 17.4042 12.4344C17.6213 12.6215 18.4634 13.875 18.7188 14.2612C19.0749 14.7995 18.6492 14.5042 18.7069 15.0996C18.9471 15.2382 20.0927 15.3084 20.4264 15.1617C20.6957 14.7277 20.2013 14.7228 19.9203 14.3641L18.2312 11.7368L19.778 10.1342C19.9985 9.94187 20.3767 9.89831 20.1638 9.55747L20.0614 9.50269C19.8325 9.43101 18.8113 9.41053 18.7032 9.5508C18.4176 9.92123 19.3255 9.56755 18.0608 10.8749C17.7806 11.1645 17.2564 11.783 16.9019 11.9949C16.9209 11.5442 16.9118 11.0914 16.9095 10.6401C16.904 9.54333 18.0704 9.43313 15.9798 9.46124C15.1084 9.47295 15.7336 9.90368 15.8111 10.1291C15.9012 10.3906 15.8524 12.3943 15.8524 12.8297C15.8524 13.2676 15.8756 13.7718 15.8522 14.2016C15.8173 14.8455 15.2863 14.7183 15.6452 15.1701H15.645ZM34.5839 10.0914C32.3038 10.7408 32.9563 15.3096 35.4615 14.6035C37.5799 14.0067 37.1095 9.37217 34.5839 10.0914ZM32.8394 34.1882L31.9424 35.0668C31.5721 35.4764 31.7624 35.8023 31.936 36.4397C32.1377 37.1801 32.2343 37.0093 32.7957 37.3391C33.4593 37.7288 33.4076 37.6546 34.1623 37.4148C34.923 37.1731 34.9381 37.0463 35.3139 35.9204C35.4331 35.5633 35.4722 35.595 35.2773 35.2729C35.1725 35.0994 34.6938 34.2976 34.5414 34.2289C34.2836 34.1127 33.0587 34.0902 32.8392 34.1882H32.8394ZM19.9292 2.68432C20.6949 3.0723 20.6532 2.30885 22.1489 1.51159C24.5453 0.234357 27.0182 0.846319 28.9108 2.57119C29.444 3.05702 30.6415 2.64059 28.7415 1.29834C26.6 -0.214252 24.0488 -0.439206 21.6609 0.802921C21.3124 0.984153 20.802 1.31866 20.5501 1.54459C19.9993 2.03838 19.7859 2.1403 19.9292 2.68415V2.68432ZM38.1959 38.3002C38.5832 37.2879 39.1633 35.8925 38.7162 34.5619C38.4607 34.4846 35.8984 34.239 35.5993 34.2776C35.7944 34.6017 36.0247 34.9195 36.2523 35.2599C36.4645 35.5775 36.6737 35.9237 36.8938 36.2595C37.1171 36.6002 37.955 38.1763 38.1959 38.3V38.3002ZM33.6991 33.2987C34.163 33.4097 35.4501 33.4139 36.0632 33.4688C36.8302 33.5374 37.6182 33.601 38.376 33.697C38.3801 33.4363 38.1206 33.0277 37.9906 32.8266C37.5778 32.1882 36.7239 31.2364 35.932 31.0181C35.828 31.1006 33.7548 33.1881 33.6991 33.2987ZM34.3814 40.9557C35.7737 40.8884 37.1131 39.7975 37.6182 39.1278L36.0214 36.4835L34.3816 40.9557H34.3814ZM31.5539 30.8438L31.6048 34.0733C31.9251 33.9303 34.9981 30.7663 35.034 30.6577C34.0386 30.1244 32.4231 30.5495 31.5539 30.8438ZM15.2094 38.5131C15.2211 38.9573 15.1793 39.4781 15.2738 39.856C15.3706 39.9022 15.4755 39.967 15.6439 39.962C16.2714 39.9428 16.0778 39.0337 16.078 38.4726C17.5501 37.7835 16.9762 35.9207 15.6445 35.9095C14.5849 35.9006 13.4362 37.4405 15.2092 38.5129L15.2094 38.5131ZM30.1294 39.6743C30.4675 40.2503 32.2986 41.0962 33.4049 41.0276C33.5746 40.8265 34.3923 38.6347 34.4536 38.2795C34.0771 38.2101 30.3339 39.4516 30.1294 39.6743ZM28.5139 34.4746L31.0461 36.2894C30.6702 34.5364 30.7596 33.1355 30.7581 31.3409C30.3002 31.4309 29.6227 32.2513 29.3628 32.6218C29.0074 33.129 28.676 33.7533 28.5139 34.4746ZM12.9616 10.4389C12.9616 10.8477 13.0094 14.2625 12.9264 14.4948C12.7981 14.8535 12.5803 14.563 12.6858 15.1888L14.2341 15.2036C14.3193 14.747 14.2229 14.8829 14.0523 14.6297C13.8918 14.3916 13.9165 10.9319 13.9549 10.3681C13.983 9.95341 14.5243 9.68539 14.1277 9.50025C14.0056 9.4432 12.9153 9.44418 12.7913 9.49944C12.3606 9.69156 12.962 9.89555 12.9618 10.4389H12.9616ZM29.443 38.9706L32.1486 38.0344C31.9097 37.8233 31.4625 37.5952 31.2054 37.4387L28.3649 35.431C28.3281 36.7456 28.6942 38.2943 29.443 38.9706ZM24.5195 4.52069C22.7327 4.82448 23.0903 7.58586 24.9943 7.23624C25.66 7.11401 26.238 6.44256 26.0776 5.61328C25.95 4.9537 25.3595 4.37782 24.5195 4.52069ZM21.5653 4.18212C22.138 4.45827 22.2816 4.0807 23.0084 3.60348C24.3701 2.70919 25.9906 3.07506 27.2302 4.04835C27.5887 4.32987 27.5962 4.35718 28.0534 4.19772C28.1753 3.67191 28.1435 3.6212 27.7651 3.37105C26.9066 2.80346 26.1876 2.28301 24.8668 2.27455C24.0485 2.26952 23.4028 2.47123 22.7579 2.78883C22.2106 3.05832 21.3809 3.48873 21.5653 4.18212ZM40.2125 12.4399C41.2134 12.5384 42.0848 12.3855 42.0913 11.3274C42.0981 10.2239 41.2603 10.0586 40.1971 10.1333C40.1308 10.4622 40.1191 12.1588 40.2125 12.4399ZM24.5435 5.38182C23.8334 5.67066 24.2354 6.70197 24.9595 6.37088C25.4733 6.13585 25.2334 5.10128 24.5435 5.38182ZM24.5008 10.8661C24.6772 10.9324 24.7189 10.9223 24.8236 10.8051C24.8236 10.8051 24.8236 10.5522 24.8236 10.0462C24.1419 8.89496 21.7644 9.14104 21.3545 10.516C21.0782 11.6679 21.9205 12.2174 22.8722 12.5215C25.4824 13.2733 23.9937 15.3122 22.2397 14.2922C21.893 14.0398 21.6832 13.7851 21.6107 13.5278C21.4696 13.3312 21.3615 13.3271 21.2863 13.5158C21.2422 14.1328 21.2201 14.4413 21.2201 14.4413C21.9553 15.1812 23.1706 15.4001 24.126 14.9866C25.9739 13.9698 25.3549 12.2436 23.5496 11.814C22.6155 11.6201 22.1573 11.2308 22.175 10.6462C22.506 9.5378 23.8105 9.79087 24.2544 10.4875C24.4187 10.7399 24.5008 10.8661 24.5008 10.8661ZM15.5738 37.6643C15.8517 37.6643 16.0772 37.439 16.0772 37.1611C16.0772 36.883 15.8517 36.6577 15.5738 36.6577C15.2959 36.6577 15.0704 36.883 15.0704 37.1611C15.0704 37.439 15.2959 37.6643 15.5738 37.6643Z" fill="white"/>
</svg>
