<svg width="57" height="39" viewBox="0 0 57 39" fill="none" xmlns="http://www.w3.org/2000/svg">
<path fill-rule="evenodd" clip-rule="evenodd" d="M3.76855 14.2764C3.82759 17.2893 3.19289 19.9465 5.5992 21.2708C7.02052 22.0531 11.9815 21.6811 13.9964 21.6859C21.0156 21.7029 19.9053 21.9761 26.5403 21.0536C27.63 20.902 29.4342 20.4938 30.4773 20.4939C30.4876 22.0341 30.5031 23.5875 30.4991 25.1264C30.4953 26.6204 29.4108 26.1025 29.0164 28.2433C28.4841 31.1324 30.567 33.3184 33.232 33.3004C34.2279 33.2937 34.3478 33.1017 35.1233 32.8554C35.67 32.6819 50.3456 32.719 51.1288 32.8571C51.336 35.8361 50.2842 38.1112 53.381 38.1056C56.7545 38.0997 55.9191 39.3376 55.9189 30.3858C55.9189 29.1038 56.0676 23.5313 55.7976 22.8216C55.4405 22.6684 52.3696 22.3565 51.608 23.2295C50.7657 24.1948 51.2458 26.293 51.1403 27.6932L37.2383 27.7285C36.5115 26.6697 36.7115 26.3272 35.6336 25.6925L35.6233 19.6224C39.2627 19.0294 42.9323 18.3965 46.5367 17.8257C48.4534 17.5222 49.7559 16.7965 50.1348 14.9944C50.3265 14.0825 50.3204 3.28744 50.0162 2.38093C49.4088 0.571699 48.161 -0.00125796 45.94 2.07285e-06L7.47053 0.112866C3.82039 0.118266 -0.933003 -0.732979 0.159268 5.07327C0.493538 6.8501 0.828167 8.74429 1.12824 10.499C1.51039 12.733 1.55215 13.8381 3.76855 14.2764ZM27.6208 13.4196C30.925 13.4233 30.8739 13.282 30.8696 17.3338C30.8696 18.2356 30.7787 18.7675 30.4372 19.4424C31.0235 19.5144 39.8518 18.0111 41.1173 17.789C42.8325 17.4879 44.6992 17.1847 46.4337 16.9091C49.7482 16.3824 49.2713 14.3846 49.2695 11.1513L49.2735 4.51075C49.2715 0.499516 47.2506 0.926669 44.3367 0.929909L20.6732 0.965189C22.7162 2.84534 22.5382 4.9316 23.2395 8.09267C23.4928 9.23408 23.7347 11.0289 24.1107 12.0384C24.6675 13.5328 25.7411 13.4174 27.6208 13.4196ZM6.928 2.7773C3.96062 3.5245 4.70494 6.04151 4.7062 9.66285C4.70674 11.0332 4.60287 18.029 4.76254 18.7758C5.33531 21.4541 9.07654 20.7675 11.9354 20.7684C13.3488 20.769 20.2266 20.8566 21.0285 20.7143C23.9046 20.204 23.1648 16.8629 23.167 13.7844C23.1688 11.289 22.3633 8.29086 21.8565 5.91641C21.0409 2.09508 21.9993 2.66804 15.9427 2.67218C14.1667 2.67344 8.18551 2.46067 6.928 2.7773ZM12.4486 4.62127C8.96566 5.40033 5.81647 8.63143 6.79822 13.2019C7.52616 16.5905 10.9567 19.7442 15.362 18.808C18.7837 18.081 21.7923 14.6969 20.952 10.2673C20.308 6.8726 16.7525 3.65861 12.4486 4.62127ZM12.8192 5.48458C10.9374 5.86349 9.75984 6.69925 8.86737 7.85416C5.4579 12.2666 9.08338 18.8507 14.9411 17.9452C17.9697 17.4771 20.7283 14.4015 20.0986 10.666C19.5779 7.57696 16.5313 4.73702 12.8192 5.48458ZM13.0935 7.22667C6.97462 8.45754 8.99104 17.3023 14.7681 16.1551C16.869 15.7378 18.826 13.6212 18.3164 10.8417C17.9034 8.5893 15.6876 6.70483 13.0935 7.22667ZM36.48 31.8155C37.9827 31.9315 50.1708 32.0002 51.1497 31.8245L51.1569 28.7218L37.4074 28.6518C37.373 30.6799 37.0654 30.5479 36.48 31.8155ZM52.1136 29.012L52.112 33.8206C52.112 37.0387 51.4202 37.371 54.9476 37.1125C55.0902 33.4214 54.9895 27.3248 54.991 23.632C53.3596 23.5735 52.1075 23.2149 52.0992 24.8843C52.0924 26.2584 52.1154 27.6373 52.1136 29.012ZM3.76441 13.2937C3.77737 12.1606 3.69709 5.30547 3.85441 4.56385C4.0778 3.51118 4.51035 3.38122 4.88314 2.75192L2.46549 2.69684C2.1404 1.62347 2.66332 1.75415 3.57594 1.75775L10.5618 1.75307C13.6512 1.75307 16.7557 1.77215 19.8435 1.73579C18.7156 0.619218 13.8661 1.05411 11.8211 1.05825C10.2253 1.06131 4.21388 0.996871 3.12719 1.10559C-0.209382 1.43932 1.14876 5.13501 1.42722 6.896C1.61839 8.10419 1.8353 9.34371 2.07416 10.6055C2.28747 11.7331 2.44371 13.4203 3.76441 13.2937ZM32.3471 25.9085C28.0028 27.1298 29.8783 33.4264 34.0666 32.2486C38.0797 31.1202 36.6049 24.7115 32.3471 25.9085ZM23.3011 20.5134C24.0015 20.5281 28.5774 19.8837 28.9246 19.6625C30.1357 18.8908 29.9487 17.2002 29.9386 15.7278C29.937 15.5073 29.9402 15.1575 29.9033 14.9487C29.6436 13.4815 26.9356 14.7088 25.1562 14.1887C24.6934 14.0535 24.4713 13.8199 24.1208 13.7086C23.8316 17.211 24.7276 18.0097 23.3011 20.5134ZM10.6761 10.1526C10.2066 10.6264 10.2225 12.054 10.4007 12.6907C11.1018 15.1942 14.1566 16.0944 16.04 14.5682C18.7966 12.3341 17.4398 7.87936 13.3013 8.09699C13.3738 8.439 14.7757 9.8164 13.3104 10.9234C12.126 11.8182 11.2409 11.0602 10.6761 10.1526ZM31.417 25.135C31.9856 25.0789 32.3033 24.8735 32.9987 24.845C33.7714 24.8135 34.0933 24.9899 34.6594 25.0526L34.7019 19.7928L31.9633 20.1905C31.4053 20.2742 31.4236 20.2164 31.3909 20.7537C31.3111 22.0702 31.4056 23.7781 31.417 25.135ZM44.9906 3.74627C42.9107 4.38889 43.7803 7.80664 46.1974 7.06862C46.9943 6.82543 47.6221 5.90813 47.2486 4.80578C46.9779 4.00728 46.1464 3.38932 44.9906 3.74627ZM32.7211 27.5347C30.9065 28.0012 31.357 31.0505 33.5202 30.5796C35.5443 30.139 34.7435 27.0146 32.7211 27.5347ZM12.1926 10.4054C12.6662 10.4054 13.0502 10.0214 13.0502 9.54765C13.0502 9.07406 12.6662 8.69011 12.1926 8.69011C11.719 8.69011 11.3351 9.07406 11.3351 9.54765C11.3351 10.0212 11.719 10.4054 12.1926 10.4054ZM45.6206 6.28614C46.0942 6.28614 46.4782 5.90219 46.4782 5.4286C46.4782 4.955 46.0942 4.57105 45.6206 4.57105C45.147 4.57105 44.7631 4.955 44.7631 5.4286C44.7631 5.90219 45.147 6.28614 45.6206 6.28614ZM33.1135 29.9433C33.5871 29.9433 33.9711 29.5594 33.9711 29.0858C33.9711 28.6122 33.5871 28.228 33.1135 28.228C32.6399 28.228 32.256 28.612 32.256 29.0858C32.256 29.5594 32.6399 29.9433 33.1135 29.9433ZM21.1041 18.653C21.3847 18.653 21.6123 18.4255 21.6123 18.1449C21.6123 17.8642 21.3847 17.6367 21.1041 17.6367C20.8235 17.6367 20.596 17.8642 20.596 18.1449C20.596 18.4255 20.8235 18.653 21.1041 18.653Z" fill="white"/>
</svg>
