<svg width="42" height="50" viewBox="0 0 42 50" fill="none" xmlns="http://www.w3.org/2000/svg">
<path fill-rule="evenodd" clip-rule="evenodd" d="M10.5603 29.6194C10.5218 33.6705 11.1347 39.5354 12.5562 42.7714C13.3587 44.5981 14.6806 45.936 15.844 47.0059C16.3416 47.4634 19.5924 49.8736 20.4976 49.8369C21.332 49.803 24.3738 47.6524 25.1495 46.9905C26.5341 45.8095 27.6355 44.4952 28.4539 42.7746C29.6914 40.1728 30.6198 33.0506 30.4561 29.6944C27.7262 28.7127 26.4528 28.816 22.8476 27.0895C22.462 26.9048 20.7161 25.866 20.588 25.8465C20.229 25.7914 19.8164 26.1673 19.4674 26.3752C17.1909 27.7318 13.0564 29.2493 10.5603 29.6193V29.6194ZM0 24.0782C0.176601 24.6557 1.96291 26.9873 2.42424 27.5133C3.01898 27.3757 3.88619 26.4835 4.55618 26.1752L4.57503 42.8655L10.8958 42.865L10.5078 41.8084L5.70183 41.7811L5.69377 25.2632C6.21246 24.9716 7.01925 24.3538 7.52504 23.9795C8.77736 23.0523 19.9129 14.9602 20.5038 14.6902C21.7226 15.3744 29.6975 21.3741 31.5821 22.624C32.8083 23.4374 34.1021 24.5612 35.3088 25.269L35.3028 41.7632L31.7332 41.7988C30.653 41.7996 30.2782 41.6536 30.1717 42.8742L36.3938 42.8748C36.5471 37.4925 36.3761 31.6395 36.4467 26.1841C37.1479 26.5099 37.9452 27.3647 38.6189 27.5614C38.8221 27.1496 39.4837 26.3304 39.8425 25.8644C40.2425 25.3449 40.775 24.7439 41.0253 24.1732C40.6777 23.9181 34.7397 19.7784 34.6534 19.5516L34.6298 12.177L28.9213 12.1412L28.896 15.3784C27.9126 14.9725 21.2577 9.80434 20.5036 9.51639C19.7909 9.87685 10.9609 16.2754 10.2419 16.8112L2.59375 22.3024C2.18173 22.6065 0.446337 23.916 0 24.0784V24.0782ZM11.6816 30.4871C11.7182 33.7834 12.3197 39.6385 13.4802 42.185C14.2805 43.9415 15.281 44.9687 16.3917 46.0105C16.844 46.4347 19.7278 48.6419 20.5002 48.6216C21.1892 48.6036 23.8793 46.6666 24.5401 46.0467C25.7889 44.875 26.5891 44.137 27.4652 42.2425C28.6766 39.6233 29.3167 33.8375 29.3158 30.5058C27.4673 30.1215 24.3171 29.0265 22.5598 28.1649C21.8861 27.8346 21.0814 27.3043 20.5034 27.0727C19.8911 27.3394 19.2229 27.8155 18.5418 28.1475C17.8668 28.4764 17.1474 28.7704 16.4091 29.0439C14.8071 29.6376 13.3052 30.0534 11.6816 30.487V30.4871ZM1.62518 24.38C1.69866 24.8431 2.39862 25.6261 2.68269 26.0188L7.1119 22.891C8.14701 22.131 19.86 13.6588 20.5036 13.3634C21.1547 13.6773 22.0806 14.423 22.7081 14.8748L38.2462 26.0162C38.4539 25.8757 39.331 24.7104 39.4663 24.4925L33.5516 20.2091L33.5186 13.2239L30.0182 13.2231C29.9837 14.4623 30.2724 16.4 29.7233 17.1958C29.1853 17.1226 27.8633 16.0669 27.3674 15.7213C25.1755 14.1929 22.5344 12.1847 20.5034 10.848L1.62502 24.3802L1.62518 24.38ZM17.5198 36.1711C17.0971 36.5594 16.8183 36.4945 16.7315 37.2062C16.4274 39.6974 17.7316 39.1607 20.6158 39.1609C21.6112 39.1609 23.6149 39.4048 24.1096 38.7676C24.3608 38.4438 24.3809 37.5315 24.2493 37.0154C24.0563 36.2581 23.541 36.5913 23.4818 35.8329C23.3747 34.4587 23.7098 33.5013 22.9854 32.3419C21.8109 30.4623 19.0259 30.5571 17.9232 32.4694C17.3298 33.4987 17.576 34.8603 17.5194 36.1711H17.5198ZM17.0536 6.49113C17.7499 6.65629 23.0015 6.61633 23.8938 6.52578L23.9359 2.32957L17.0667 2.34874L17.0538 6.49129L17.0536 6.49113ZM15.2257 4.11137L16.1277 3.82278L15.0699 1.14315L25.8743 1.12381L24.8126 3.81891L25.7712 4.11814L27.3667 0.561463C27.6278 -0.204722 26.9574 0.0350433 25.557 0.037138L15.2259 0.0361713C13.3095 0.0376214 13.3442 -0.170561 14.0818 1.60238C14.4289 2.43624 14.6993 3.45234 15.2259 4.11121L15.2257 4.11137ZM18.6744 36.2189L22.3292 36.2123C22.4875 35.6743 22.4193 33.9226 22.2532 33.4054C21.5544 31.2299 17.7508 31.2846 18.6746 36.2189H18.6744ZM18.1665 5.46601L22.8162 5.48986L22.8515 3.41705L18.1848 3.40932L18.1665 5.46601ZM17.7584 38.1709H23.4008V37.3693H17.7584V38.1709ZM16.5072 32.5159C15.8332 31.9123 15.4961 31.6105 15.4961 31.6105C15.2658 31.0506 15.7563 30.6608 16.2205 30.8938C16.8996 31.437 17.2391 31.7087 17.2391 31.7087C17.9202 32.3326 17.0876 33.0391 16.5072 32.5159ZM16.1472 34.9536C15.2431 34.9179 14.791 34.9002 14.791 34.9002C14.2567 34.6155 14.3862 34.0025 14.8923 33.8862C15.7618 33.872 16.1965 33.8651 16.1965 33.8651C17.1189 33.9118 16.9278 34.9869 16.1471 34.9537L16.1472 34.9536ZM24.5337 32.496C25.2601 31.8924 25.6233 31.5906 25.6233 31.5906C25.8714 31.0306 25.3429 30.6408 24.8427 30.8738C24.1109 31.417 23.7449 31.6887 23.7449 31.6887C23.011 32.3126 23.9082 33.0192 24.5337 32.4961V32.496ZM24.9215 34.9336C25.8959 34.898 26.3832 34.8802 26.3832 34.8802C26.9591 34.5955 26.8194 33.9826 26.2739 33.8662C25.3368 33.8522 24.8682 33.8451 24.8682 33.8451C23.8742 33.8918 24.0801 34.9671 24.9215 34.9337V34.9336ZM20.5002 46.1811C20.8955 46.1811 21.2158 45.8606 21.2158 45.4655C21.2158 45.0702 20.8955 44.7499 20.5002 44.7499C20.105 44.7499 19.7846 45.0704 19.7846 45.4655C19.7846 45.8608 20.1051 46.1811 20.5002 46.1811ZM22.3711 44.0387C21.0637 42.9164 19.8046 42.9127 18.594 44.0276C18.7631 44.1897 18.9279 44.3814 19.089 44.6028C20.0882 43.822 21.0068 43.8174 21.8447 44.5894C22.1957 44.2224 22.3713 44.0388 22.3713 44.0388L22.3711 44.0387ZM23.4681 42.9156C21.4053 41.2213 19.4266 41.2313 17.532 42.9454C17.9095 43.3299 18.0982 43.5221 18.0982 43.5221C19.7424 42.1799 21.3634 42.1699 22.961 43.4923C23.2991 43.1078 23.4681 42.9156 23.4681 42.9156Z" fill="white"/>
</svg>
