<svg width="43" height="59" viewBox="0 0 43 59" fill="none" xmlns="http://www.w3.org/2000/svg">
<path fill-rule="evenodd" clip-rule="evenodd" d="M19.3897 0.126735C16.1744 0.69897 13.815 2.78849 12.8941 5.4072C12.0631 7.77018 12.4236 13.7719 12.4255 16.6849C12.4276 20.5493 11.9568 24.1568 13.9132 26.9492C17.789 32.4811 26.3349 31.2619 28.5041 25.003C29.2961 22.7181 28.9843 16.5784 28.9907 13.7554C28.9999 9.70405 29.5275 6.39814 27.5113 3.49793C26.1276 1.50777 23.0999 -0.533501 19.3897 0.126498V0.126735ZM13.3362 6.45752C15.2814 6.48212 18.2413 5.92313 18.0816 8.29322C17.9378 10.4267 15.0094 9.80317 13.1041 9.86681L13.1086 11.4801C15.0692 11.5989 18.0932 10.8897 18.0761 13.2243C18.0572 15.7902 14.3563 14.5071 13.0862 15.0366L13.0876 16.9702C13.7317 17.1235 27.824 17.1112 28.3227 16.9669L28.335 14.9448C26.486 14.5892 23.3774 15.6585 23.3453 13.2226C23.3143 10.8653 26.3749 11.6514 28.3056 11.482L28.3182 9.87248C26.3141 9.78779 23.4519 10.4755 23.3308 8.29511C23.1979 5.89711 26.1844 6.5221 28.0897 6.45681C27.5328 2.35938 21.247 -1.75391 15.8813 2.39557C14.9862 3.08774 13.5889 4.76305 13.3357 6.45728L13.3362 6.45752ZM28.303 17.7286L13.1101 17.6976C13.0642 20.8992 12.763 23.8976 14.308 26.2911C17.4767 31.2004 24.3289 30.7296 27.0848 26.3857C28.7069 23.829 28.3057 21.0851 28.303 17.7286ZM19.3942 35.0447L19.3876 40.1965C16.6589 40.3299 13.5352 39.448 13.784 42.8045L27.6104 42.8128C27.6852 41.4365 27.1614 40.4401 26.0363 40.2615C24.8637 40.0754 23.1305 40.4065 22.0035 40.1702L21.9872 35.1386C23.3734 34.6198 24.4374 34.9638 27.0244 33.5146C31.828 30.8245 34.2617 25.7808 33.6453 19.7313L31.3861 19.746C31.3471 19.754 31.3002 19.771 31.2693 19.7784C31.2385 19.7857 31.1912 19.7987 31.1541 19.8141C30.8574 21.5301 31.2842 23.107 30.7029 25.0792C27.7545 35.0852 13.6996 35.0646 10.731 25.0754C10.1715 23.1933 10.6115 21.0596 10.2368 19.7074L7.89181 19.6712C7.37493 20.8592 7.92895 24.5916 8.27314 25.8012C9.66813 30.7034 13.7963 34.4488 19.394 35.0445L19.3942 35.0447ZM9.6485 20.379L8.4288 20.3307C8.37179 26.3008 10.0899 30.4663 14.9869 33.0673C15.7309 33.4624 16.4342 33.7505 17.2534 33.9899C20.4651 34.9278 20.0848 33.2369 20.0923 37.5922C20.094 38.4545 20.2194 40.0969 19.9845 40.8506C18.0004 41.0583 14.7844 40.1617 14.4821 42.1256L26.8693 42.1282C26.5844 39.7255 22.2083 41.5385 21.435 40.7273C21.0729 40.3474 21.3269 34.7261 21.382 34.5458C21.744 34.3764 23.4467 34.1853 24.0646 34.009C26.3552 33.3552 28.638 31.9214 30.0162 30.2473C30.9698 29.0891 31.744 27.8938 32.3328 26.1813C32.7792 24.8828 33.3216 21.8012 32.9133 20.3447L31.8429 20.348C31.4429 23.1193 32.2214 25.9646 29.0368 29.5348C24.6558 34.4457 17.3818 34.6414 12.5258 29.6694C10.2515 27.3409 9.63478 24.5195 9.64826 20.3792L9.6485 20.379ZM28.0703 56.5865C28.1046 57.4906 27.8401 58.0299 28.8859 57.8774C29.0752 57.3184 29.0837 51.1423 28.9403 50.409L28.1961 50.3683L28.1121 51.8191C27.5671 51.4037 26.4335 49.6167 23.8295 50.4269C20.6189 51.4257 20.3528 56.5112 23.5586 57.7901C25.3217 58.4933 26.662 57.9713 27.8295 56.8048C27.9927 56.6418 27.8874 56.7201 28.0705 56.5867L28.0703 56.5865ZM24.4852 51.1522C20.653 52.059 21.9197 58.0015 25.867 57.1514C29.4828 56.3726 28.4743 50.2084 24.4852 51.1522ZM0.00423128 48.6442L0.030489 57.8324L0.87737 57.8688L0.920423 53.2063L7.1353 53.1426L7.14831 57.8284L8.03611 57.8606L8.03564 48.6442C8.03611 47.8927 8.06828 47.4969 7.24766 47.8205C6.7833 48.8746 7.34347 51.0093 7.06906 52.3062L0.953068 52.3097L0.844725 47.764C-0.121854 47.6169 0.00754287 47.8241 0.00399449 48.6442H0.00423128ZM14.2552 57.8998L14.9063 57.902C15.1428 57.1596 14.8097 56.1453 15.064 55.5023C15.1655 55.2456 16.1737 54.3689 16.4552 54.2414C17.1524 54.9346 17.559 55.4384 18.1809 56.243C19.1347 57.4766 19.3074 58.2187 20.1931 57.8613C20.2958 57.6022 20.1865 57.4799 20.0701 57.2968C19.4846 56.3773 17.8727 54.7039 17.2084 53.5713C17.629 52.8862 19.9173 51.0474 20.0703 50.387C18.8208 50.2909 18.6772 50.809 17.3873 52.1063C16.7587 52.7383 15.5897 54.1163 15.0179 54.2672L15.0113 48.3738C15.0278 47.3469 15.2105 47.1196 14.211 47.2147C14.043 48.1056 14.0409 57.3397 14.2548 57.9001L14.2552 57.8998ZM31.128 56.3856L30.8181 56.8786C31.4308 58.0098 34.0145 58.3559 35.4578 57.7898C37.1272 57.1348 37.4456 55.0166 35.6529 54.2135C34.6234 53.7522 31.4457 53.5784 32.0092 51.953C32.7101 49.9311 36.1043 51.8943 36.4232 51.5629C37.2944 50.6578 33.7351 49.8081 32.225 50.5656C30.548 51.4068 30.657 53.4206 32.5353 54.1407C33.4532 54.4924 35.4798 54.6966 35.8209 55.3866C36.0333 55.8165 35.9614 56.3466 35.6785 56.6785C34.3537 58.2338 31.3738 56.4114 31.1278 56.3856H31.128ZM39.2269 48.7774L39.2091 50.3562C38.6508 50.4286 38.2212 50.3517 37.8075 50.5457C37.6793 51.5063 38.2898 51.1752 39.2247 51.1818C39.295 52.5531 39.0343 55.4446 39.3044 56.5618C39.6089 57.8218 40.7591 58.1054 41.899 57.9911C42.643 57.9166 42.5893 57.8525 42.537 57.1492C39.7735 56.8902 40.0995 58.0406 40.1196 51.1749C40.7101 51.1636 42.3878 51.4146 42.3752 50.7834C42.3622 50.1206 40.7013 50.4094 40.1229 50.3926C40.1106 49.9957 40.162 48.8124 40.1005 48.5267C39.9817 47.9738 39.229 47.7588 39.2269 48.7774ZM28.2515 14.2166L28.3248 12.1945C26.9776 12.1401 24.0485 11.6748 24.0547 13.22C24.0608 14.7553 27.041 14.2758 28.2515 14.2166ZM13.0949 14.1944C14.8734 14.2734 17.3629 14.5838 17.3755 13.22C17.3899 11.6464 14.4223 12.1444 13.129 12.1768L13.0949 14.1944ZM28.2553 9.16091L28.2903 7.16791C26.9618 7.0456 24.0566 6.67586 24.0502 8.16405C24.0438 9.683 26.9509 9.20586 28.2553 9.16068V9.16091ZM13.0601 9.14459C14.9427 9.1893 17.371 9.53728 17.3866 8.16003C17.4036 6.63423 14.4625 7.07234 13.182 7.15371L13.0604 9.14483L13.0601 9.14459ZM10.7308 57.7125H11.5876V50.3524H10.7308V57.7125ZM11.0281 48.7717C11.3851 48.7717 11.6744 48.4824 11.6744 48.1255C11.6744 47.7685 11.3851 47.4792 11.0281 47.4792C10.6711 47.4792 10.3818 47.7685 10.3818 48.1255C10.3818 48.4824 10.6711 48.7717 11.0281 48.7717Z" fill="white"/>
</svg>
