<svg width="117" height="116" viewBox="0 0 117 116" fill="none" xmlns="http://www.w3.org/2000/svg">
<path fill-rule="evenodd" clip-rule="evenodd" d="M14.9356 41.9879C14.3276 43.9276 12.8052 48.8669 12.7242 50.7821C12.5775 54.251 14.5858 56.8172 17.1071 57.6634C19.8859 58.5959 23.0216 59.3046 25.8169 60.0988C28.6579 60.9065 31.6824 61.8979 34.4838 62.5684C34.0077 65.2224 33.1227 66.4056 34.4348 69.0912C35.3262 70.9164 37.2097 71.501 39.5626 72.1998L39.5543 80.6593C38.5256 81.4584 37.2237 81.8493 36.1943 83.916L10.6499 83.9251C10.648 81.498 10.9518 75.3197 10.5598 73.3415C9.76561 69.3329 5.69322 69.8598 3.2228 69.8624C1.28008 69.8647 -0.00563543 69.5466 1.85728e-05 71.8282L0.00303468 104.188C-0.00714252 106.843 0.269148 106.765 2.91371 106.754C6.61633 106.739 9.60767 106.845 10.4969 103.535C10.9605 101.808 10.5862 95.2248 10.6612 92.8946L36.3473 92.901C37.6851 94.5422 39.3767 96.2067 42.3956 96.4513C45.3428 96.6903 47.5121 95.6748 49.3934 93.6978C51.8962 91.0672 52.2196 86.2387 49.6534 82.9937C48.7284 81.8237 48.1563 81.504 46.9429 80.7649L46.9444 74.3743C49.5897 74.9397 50.7443 74.7984 52.6682 73.4573C54.765 71.9951 54.6663 69.7916 55.2321 68.5888L63.2445 70.8146C64.4477 71.1715 78.2574 75.1395 79.3776 75.2914C82.8009 75.7562 84.7467 73.5195 85.6943 71.2556C87.438 71.4848 92.6774 73.4663 93.9013 73.3679C95.3762 73.2496 95.429 71.5319 95.8406 70.1693L99.4124 58.1048C99.7656 56.8816 100.688 54.8639 99.6906 54.0007C98.9397 53.3509 96.8436 53.1372 95.7859 52.6434C96.5703 51.8778 97.5225 51.2883 98.4576 50.5258C99.9642 49.297 101.906 48.188 102.23 47.1417C102.996 44.6731 100.098 44.2593 98.4437 43.7723C93.2205 42.2344 89.0678 41.2837 83.5175 39.5095C80.133 38.4277 72.2457 36.3569 68.4862 35.3516C63.3817 33.9863 58.3772 32.5167 53.3515 31.1269C43.3285 28.3553 33.2135 25.5705 23.1773 22.7665C19.5629 21.7567 15.2602 19.8717 13.7988 25.3184C12.9571 28.4545 11.1829 34.0723 10.6744 36.5879C10.3638 38.1239 10.867 39.4364 11.6427 40.3482C12.8391 41.7545 13.1037 41.335 14.9368 41.9886L14.9356 41.9879ZM17.4633 42.5951C16.9224 43.4428 15.083 50.4707 15.2183 51.6796C15.6416 55.4557 19.0842 55.571 22.0536 56.3912C34.1238 59.7263 45.8521 63.2744 57.9079 66.663C63.9535 68.3623 70.0218 70.132 75.9966 71.7942C76.7335 69.85 77.8952 63.8632 78.8854 62.6815C79.4119 62.0528 84.9103 57.9532 85.7489 57.3027C90.3551 53.7286 94.9616 50.3343 99.5274 46.7606C98.4727 46.1458 92.2205 44.7154 90.4429 44.231C87.3027 43.375 84.4105 42.3271 81.3905 41.5333C81.1617 42.0142 81.061 42.4647 80.6867 42.81C80.0188 43.4255 77.715 45.3629 77.3912 45.9622C78.1145 46.6106 78.7059 47.4406 79.3283 48.2133C79.577 48.522 81.3652 49.9653 79.7772 50.7353C79.1443 51.0422 78.3482 51.3222 77.6961 51.6008L74.7964 52.8812C74.2031 53.1662 74.2811 53.0746 74.0934 53.6762C73.6486 55.098 73.3354 56.8669 72.8243 58.1447C71.9638 58.3683 71.8247 58.432 71.1488 57.9532C70.9178 57.0818 71.6792 52.5164 72.1688 51.7904C72.5389 51.2412 76.43 49.6961 77.335 49.3479C76.6747 48.2615 74.2238 46.1745 74.3625 45.3674C74.4262 44.9969 77.2385 42.5495 77.7252 42.1586C78.2284 41.7545 78.5084 41.7086 78.5529 40.7858C71.8797 39.1921 63.8224 36.5928 56.8834 34.756C49.6421 32.8393 42.3658 30.6637 35.0978 28.6855C31.4344 27.6889 27.8494 26.6934 24.1912 25.6587C16.7924 23.5656 17.0065 22.9486 15.7038 27.7967C15.213 29.6229 14.7121 31.4454 14.1772 33.2377C12.1704 39.9622 12.9571 38.7002 18.8983 40.3584L62.4315 52.545C63.338 52.7881 64.1277 53.3908 63.5875 54.473C63.1069 55.4357 62.0157 55.1123 60.9848 54.8066C48.4258 51.0833 35.5573 47.6392 22.8916 44.1386C21.1814 43.666 19.1584 42.9253 17.4637 42.5955L17.4633 42.5951ZM107.882 81.7034C105.53 81.662 103.506 81.449 103.311 83.8998C103.234 84.864 103.197 86.2949 103.681 86.9933C104.267 87.8399 104.901 87.8539 105.706 88.3981C105.535 89.5519 104.702 89.0612 103.722 90.939C103.034 92.2564 103.167 93.3198 103.167 94.8991C103.167 97.9432 103.163 100.987 103.165 104.031C103.168 108.442 101.999 115.637 109.87 115.634C113.122 115.633 114.897 114.725 116.102 112.725C117.384 110.596 116.918 107.076 116.914 104.341C116.911 102.419 117.218 92.4362 116.523 91.0506C115.526 89.0642 114.653 89.4909 114.508 88.3978C115.965 87.325 117.1 87.9311 116.907 84.0547C116.779 81.4863 114.877 81.6646 112.47 81.7125C112.497 79.285 112.343 68.4482 112.51 67.1979C112.743 65.4572 114.293 63.3242 113.86 61.3701C113.447 59.5092 112.721 57.4289 112.285 55.6246C111.74 55.5002 109.023 55.2917 108.484 55.5805C107.931 55.8756 107.566 57.8157 107.333 58.6374C106.332 62.1734 106.074 61.8824 107.301 65.403C108.216 68.0279 107.904 69.9835 107.905 73.2288C107.905 75.9454 108.043 79.0317 107.882 81.7031V81.7034ZM111.883 88.3378L108.323 88.3589C107.845 89.5911 107.939 90.1283 107.01 90.9583C106.017 91.8456 105.717 91.6835 105.724 93.6575C105.733 96.2896 105.731 98.9229 105.729 101.555C105.726 104.164 105.664 106.857 105.729 109.456C105.792 111.982 107.495 113.13 110.024 113.134C112.539 113.139 114.287 112.132 114.445 109.756C114.651 106.657 114.433 97.6963 114.458 93.8117C114.48 90.5617 113.263 92.4359 112.026 88.6974L111.883 88.3375V88.3378ZM2.50474 104.266C8.68871 104.455 8.15384 104.147 8.15384 99.2335V77.5632C8.15384 72.4166 8.68079 72.1606 2.51115 72.3672L2.50474 104.265V104.266ZM39.382 17.3519C39.3462 21.0353 38.3307 25.1114 40.3696 25.1058C41.4785 25.1028 41.5577 24.0613 42.54 22.1303C43.3063 20.6237 44.0285 19.1423 44.808 17.5867C47.65 11.9154 48.5166 12.1234 41.1875 11.8958C41.4559 10.2086 42.99 4.48225 43.5128 2.51767C43.7375 1.67334 44.1223 0.787927 43.3666 0.25532C42.7322 -0.191722 41.9836 -0.0873113 41.5038 0.853137C39.4664 4.84637 36.552 10.6545 34.4076 14.347C32.3631 17.8675 37.4913 16.6165 39.3816 17.3526L39.382 17.3519ZM42.0873 82.4769C34.4329 84.0709 37.0288 95.7118 44.4555 94.0077C47.1853 93.3812 49.5641 90.7072 48.8826 87.1422C48.3376 84.2903 45.6478 81.7355 42.0873 82.4765V82.4769ZM54.4522 15.0304C54.1521 16.8494 51.4725 21.7122 51.8773 23.0074C52.8201 24.6553 54.4816 22.2754 55.0281 21.6301L61.5807 14.2569C64.6271 11.3571 59.8378 11.3428 57.7794 10.7816C58.6395 8.55275 59.8039 6.2184 60.7571 3.97301C61.0021 3.39593 61.4714 2.76758 61.2215 2.10946C61.0236 1.58816 60.3146 1.21952 59.6392 1.61454C59.2419 1.84673 51.5637 12.7906 51.4548 13.2644C51.0722 14.9339 53.168 14.6251 54.4522 15.0304ZM86.4188 68.7411L93.1263 70.6989L97.4818 55.7799C96.6872 55.6151 95.7546 55.2744 94.9537 55.0433C93.6887 54.6785 93.4508 54.3166 92.5861 55.0196C91.9469 55.5394 91.409 55.9514 90.7331 56.4236C89.7049 57.1432 89.8669 57.1564 89.4621 58.5254C88.4655 61.8926 87.3219 65.4384 86.4188 68.7411ZM10.6499 90.3797L35.2497 90.3857C34.9504 88.6771 34.9806 88.2063 35.1253 86.452L10.6695 86.4675L10.6499 90.3797ZM52.7598 67.8428C50.3489 67.2952 38.506 63.562 36.967 63.3641C36.0816 65.112 35.8249 67.8557 37.4687 68.8493C38.3835 69.4022 42.0175 70.2733 43.3571 70.6864C48.1114 72.1512 51.7744 74.0641 52.7601 67.8428H52.7598ZM78.3633 72.4184C82.1523 74.0573 83.3908 71.0211 84.2578 68.06C85.006 65.504 86.3245 61.8251 86.7885 59.3004C86.1896 59.6151 80.9532 63.8081 80.7994 64.1105L78.3633 72.4184ZM109.538 93.7366C108.487 94.3544 108.902 96.5686 108.897 97.8411C108.89 99.2361 108.73 108.681 109.052 109.331C109.294 109.818 110.114 110.174 110.8 109.772C111.682 109.255 111.371 106.983 111.372 105.735C111.372 104.391 111.496 94.8901 111.249 94.3017C110.992 93.6884 110.187 93.3559 109.539 93.737L109.538 93.7366ZM42.2599 85.7174C38.7062 87.1015 40.8456 92.0906 44.1208 90.7713C47.4857 89.4159 45.4092 84.4909 42.2599 85.7174ZM42.0846 80.0479L44.4657 80.0585C44.4849 78.6714 44.7205 74.6401 44.3873 73.6861L42.1219 72.9982L42.0846 80.0479ZM105.753 85.5399C106.673 86.1245 108.311 85.8964 109.407 85.8957C110.827 85.8946 113.338 86.1245 114.468 85.5715L114.471 84.1207C112.29 84.4641 108.015 84.3137 105.764 84.1203L105.752 85.5402L105.753 85.5399ZM110.181 66.0999C110.461 65.6359 111.511 62.7037 111.487 62.1138L110.663 58.801C110.52 58.2182 110.616 58.1074 110.181 57.9491C109.772 58.3419 109.077 61.1855 108.972 61.9593C108.889 62.5692 109.882 65.4934 110.181 66.0999ZM36.9451 14.8479C41.0959 15.2452 41.6851 15.0141 41.5464 16.978C41.4989 17.6523 41.4921 18.4669 41.3733 19.0647L43.6741 14.4476C38.5203 14.1061 38.4133 15.0277 39.359 10.143C38.7141 11.6138 37.5117 13.3123 36.9451 14.8479ZM54.5875 12.8916C57.8762 13.4046 56.736 14.31 56.1239 16.7661L59.1058 13.3311C58.3583 13.1536 57.6425 12.9881 56.8555 12.8083C55.7929 12.566 55.6339 12.5437 55.2875 11.6353L54.5875 12.8916Z" fill="#C9A35B"/>
</svg>
