<svg width="135" height="61" viewBox="0 0 135 61" fill="none" xmlns="http://www.w3.org/2000/svg">
<path fill-rule="evenodd" clip-rule="evenodd" d="M66.6826 16.1552L66.7123 19.5349L43.7276 19.6076L43.6411 21.5676L66.6489 21.5774L66.7123 25.0089C61.6733 25.0058 56.6292 24.9615 51.6053 25.008C50.0769 25.0222 45.5492 24.6842 44.5413 25.4448C43.7437 26.0463 43.291 26.9078 43.2555 28.3222C43.2174 29.8499 43.2573 31.468 43.2507 33.0082C43.2383 35.9162 42.7413 39.2268 44.4775 40.4489C46.3042 41.7348 64.6268 40.1942 66.7284 41.0912L66.7145 44.4045C64.9167 44.7057 61.1833 44.4833 59.2077 44.474C56.6728 44.4625 54.1394 44.4802 51.6053 44.4758C42.7273 44.4607 43.2757 43.6722 43.2452 52.9472C43.2166 61.6069 43.1598 60.4721 52.0906 60.5133C57.2124 60.5368 62.3364 60.469 67.4575 60.5098C72.5192 60.5505 77.6003 60.5425 82.6624 60.5098C91.7452 60.4517 91.7892 61.781 91.8101 53.143C91.817 50.3032 92.3291 46.7273 90.8476 45.2058C89.5809 43.9048 85.739 44.451 83.7945 44.4647C78.6819 44.501 73.4307 44.2787 68.3433 44.4536L68.3584 40.937C73.3325 41.0163 78.3267 40.891 83.3093 40.9198C91.9772 40.9703 91.8068 41.989 91.7917 33.0077C91.7866 30.0019 92.3126 26.6873 90.5133 25.466C89.2224 24.5899 85.2416 25.0231 83.4709 25.0138C78.4741 24.9872 73.3596 24.888 68.3734 25.0089L68.3499 21.5605L91.3288 21.5853L91.3717 19.643L68.3335 19.62C68.3554 18.5028 68.1868 17.1363 68.4753 16.0994C73.5058 16.1578 78.5998 16.1326 83.6325 16.0958C92.0117 16.0343 91.817 17.0752 91.8075 7.39935C91.8049 4.53301 92.2015 1.15417 90.0211 0.26162C88.964 -0.170701 55.7738 0.0609654 52.0906 0.0702674C42.8461 0.0933009 43.2782 -0.84266 43.2617 7.79048C43.2562 10.8154 42.7116 14.0831 44.4104 15.5111C45.654 16.5569 49.8284 16.0768 51.6053 16.0732C54.0801 16.0679 65.1179 15.9541 66.6826 16.1552ZM106.389 11.1955C98.1905 12.5004 91.5198 21.0299 92.4639 32.5081C93.2769 42.3957 100.919 50.7994 110.251 49.3199C118.436 48.022 125.141 39.501 124.083 28.091C123.178 18.3336 115.782 9.6996 106.389 11.195V11.1955ZM25.1598 11.1729C16.8907 12.2439 10.0238 20.8651 10.8973 32.159C11.6813 42.2938 18.9824 50.3657 28.2819 49.3753C36.54 48.4956 43.5267 39.5001 42.5386 28.312C41.6651 18.4231 34.4201 9.97379 25.1598 11.1729ZM89.9822 46.815C88.6675 45.9969 78.9311 46.4319 76.5154 46.4336L48.8553 46.4567C44.4833 46.4518 44.862 46.0257 44.8865 50.0153C44.9477 59.9507 43.3387 58.536 51.4433 58.5377L86.0589 58.5386C89.6413 58.5134 90.164 59.5609 90.1669 55.0978C90.1684 53.0965 90.3564 48.3653 89.9822 46.8146V46.815ZM44.8748 6.03152L44.8957 10.7233C44.8953 14.7205 44.597 14.1145 50.1491 14.1149L88.647 14.1065C90.7178 14.1127 90.16 12.3653 90.1592 8.18161L90.1662 4.27211C90.171 1.68837 89.7319 2.0857 86.8679 2.08171L48.2083 2.03343C44.583 2.02989 44.8752 1.65869 44.8752 6.03196L44.8748 6.03152ZM44.8924 31.6399C44.9019 40.37 44.0985 38.9358 49.8229 38.9433L87.0291 38.969C87.9872 38.9677 89.0322 39.0381 89.8341 38.7263C90.3682 37.4063 90.1442 31.5841 90.1252 29.4894C90.098 26.6709 89.6982 26.992 87.5148 26.9942L46.5905 26.9614C44.4368 26.9592 44.9016 27.7845 44.8924 31.6395V31.6399ZM107.689 3.96514C110.21 5.18415 116.611 3.50758 124.059 13.4709C129.011 20.0952 129.363 27.9284 129.148 36.7813C128.249 36.2218 126.018 31.8649 125.102 33.4689C124.583 34.3782 126.211 36.0114 127.092 37.1764C130.727 41.9784 129.349 41.1182 134.577 34.9434C135.75 33.5574 134.216 32.4899 133.218 33.6992C132.392 34.6998 131.953 35.7177 130.834 36.6435C130.737 25.1223 130.926 20.8642 124.95 11.6149C123.301 9.06352 119.735 6.29551 117.302 4.8289C115.163 3.53858 111.995 2.59465 109.505 2.34483C108.156 2.20928 107.329 2.15657 107.689 3.96559L107.689 3.96514ZM4.11767 26.0826C4.32366 28.3567 4.07845 31.0021 4.23862 33.3931C4.3867 35.6088 4.73013 37.7234 5.25756 39.7632C7.07186 46.7836 11.542 52.7346 16.9372 55.7498C18.6995 56.7349 25.0645 59.3802 27.0731 58.3083C27.6852 57.5637 27.4895 57.1212 27.0188 56.6211C26.1509 56.2787 23.4093 56.2202 22.0488 55.8379C17.9954 54.6987 13.3731 51.5258 11.0318 48.0291C9.86221 46.2826 9.58915 45.9809 8.57424 43.9602C5.75164 38.3396 5.80808 32.6605 5.83044 26.1256C6.59611 26.6908 7.36728 27.9576 7.99916 28.8249C9.30362 30.6158 10.4541 29.17 9.50118 27.7955C8.83814 26.8392 8.06844 26.0317 7.35005 25.1103C4.74186 21.7669 5.07613 21.9437 2.52073 25.1002C1.85768 25.9192 0.838746 27.0434 0.289692 27.8903C-0.534254 29.1616 0.516937 30.5724 1.96507 28.7302C2.71645 27.7743 3.38316 26.9623 4.11877 26.0822L4.11767 26.0826ZM27.5965 21.7944C27.3549 22.6378 27.4436 28.0573 27.5191 29.2564L34.003 29.2533C34.2196 26.402 33.3124 23.568 32.9965 21.0365L27.5965 21.7944ZM20.5479 39.5094C21.0012 39.4527 25.5916 38.674 25.6396 38.6487C26.0336 38.2922 25.8474 31.7914 25.8196 31.3223L19.324 31.2674C19.3171 33.7643 19.6466 37.5777 20.5479 39.5094ZM102.06 39.5408C103.838 39.3801 105.434 38.8419 107.461 38.7382L107.451 31.2585L100.942 31.2594C100.875 34.5457 101.65 36.7254 102.06 39.5408ZM27.5191 38.7147C29.5687 38.9158 30.963 39.1409 32.9334 39.5479C33.3205 36.9256 34.1837 34.3486 34.0198 31.2736L27.5309 31.2776L27.5195 38.7147H27.5191ZM19.3519 29.2785L25.8027 29.2533L25.8166 21.8334C23.9496 21.6597 22.1092 21.1783 20.5479 21.0604C19.8357 22.7485 19.2863 27.1373 19.3519 29.2785ZM109.169 21.8657L109.118 29.2887L115.632 29.2519C115.777 26.1291 114.91 23.7115 114.555 21.0268C113.675 21.161 112.893 21.4024 111.979 21.5477C111.1 21.6872 110.015 21.5853 109.169 21.8657ZM100.943 29.2675L107.406 29.2559L107.401 21.7833L102.039 21.0268C101.69 23.7443 100.864 25.9471 100.943 29.267V29.2675ZM109.124 38.736C111.21 38.7812 112.633 39.2622 114.509 39.4713C115.082 36.6612 115.646 34.4956 115.646 31.2855L109.166 31.282L109.124 38.736ZM34.5729 40.0458L37.5256 41.5355C37.8943 40.9224 38.3499 40.3413 38.763 39.5772C39.9685 37.3482 40.9365 34.0615 40.9365 31.2723L35.7505 31.2563C35.2271 37.4855 35.3796 34.8526 34.5729 40.0462V40.0458ZM34.581 20.4492C35.3338 25.4421 35.255 23.3598 35.7487 29.2763L40.9138 29.248C41.0094 26.0414 38.9005 20.1072 37.3702 18.9967L34.581 20.4492ZM97.5432 41.5638L100.43 40.1304C100.357 39.0266 99.8666 37.3992 99.6672 36.1115C99.4217 34.5257 99.3429 33.0162 99.2322 31.3555L94.0591 31.3015C94.0393 35.04 95.9316 39.9519 97.5432 41.5638ZM94.0748 29.2759L99.223 29.2258C99.5034 25.5378 99.7959 23.8187 100.447 20.497L97.4989 18.9608C95.9247 20.7344 93.9696 26.1021 94.0744 29.2759H94.0748ZM116.14 40.1127L119.269 41.5142C119.679 40.4564 120.714 39.2108 121.444 37.0634C122 35.428 122.538 33.2248 122.495 31.27L117.36 31.2762C117.109 35.1034 116.768 36.7507 116.14 40.1127ZM15.9058 41.5186L18.8725 40.0378C18.0665 36.8526 17.9305 34.7543 17.6296 31.2811L12.5213 31.2895C12.4876 35.3598 14.2763 39.5289 15.9058 41.5186ZM116.163 20.4749C116.838 24.9815 116.94 23.409 117.351 29.2094L122.483 29.2621C122.613 25.8027 120.496 20.489 119.057 19.0689L116.163 20.4749ZM12.5261 29.2178L17.638 29.2772C17.7685 27.6901 17.8074 26.2585 18.0214 24.6767C18.2267 23.16 18.5972 21.8569 18.7959 20.4974L15.7915 19.0344C14.6219 21.6478 12.4689 24.4415 12.5261 29.2178ZM82.4351 49.3248C82.3475 50.4742 82.0008 55.2913 82.784 55.6926C83.2367 55.9248 85.787 55.795 86.5438 55.7972C87.4554 55.7994 87.7024 55.9469 87.7867 54.8922L87.7776 51.5798C87.7739 49.3296 88.5154 48.9766 83.4702 49.2238L82.4351 49.3248ZM82.3262 8.37739C82.327 8.88058 82.301 9.46616 82.3178 9.95563C82.3464 10.7751 82.3171 10.7312 82.6283 11.172C83.2451 11.5418 86.9353 11.5361 87.5379 11.156C87.9403 10.7476 87.7699 8.26532 87.7724 7.20224C87.779 4.58616 88.187 4.82004 85.088 4.81827C81.7816 4.81783 82.3178 4.40854 82.3262 8.37739ZM83.4702 36.2528C88.1664 36.2439 87.7783 37.0603 87.7746 33.0086C87.7717 29.5075 88.3263 29.7011 84.926 29.6949C82.4523 29.6914 82.309 29.1381 82.3189 32.0297C82.3307 35.5317 81.9715 36.2559 83.4702 36.2528ZM47.2495 6.2273C47.2521 7.36436 47.0443 10.5266 47.4243 11.0488C47.7524 11.5002 47.7418 11.4067 49.0143 11.3948C53.4035 11.3531 52.6741 12.5504 52.6752 6.2273C52.6755 4.4236 52.0667 4.87718 50.472 4.86921C49.7734 4.86567 49.0469 4.83599 48.3535 4.84617C47.2986 4.86212 47.2462 4.93787 47.2491 6.2273H47.2495ZM47.2253 52.1663C47.2235 53.1878 47.1656 54.8869 47.3969 55.6851C49.6858 55.7848 50.2799 55.8694 52.5374 55.7095C52.7364 54.1543 52.9262 50.3622 52.4131 49.4036L48.5309 49.2791C46.7826 49.2876 47.2297 50.0468 47.225 52.1663H47.2253ZM47.2286 33.2044C47.2315 36.8703 47.1139 36.2595 50.634 36.2555C51.2827 36.2555 52.0312 36.2807 52.5033 36.0495C52.8042 34.9727 52.6554 31.3498 52.5762 29.9328C51.8857 29.6666 50.2524 29.7525 49.3402 29.7525C46.6807 29.7525 47.2257 29.8858 47.229 33.2049L47.2286 33.2044ZM109.118 47.3669C111.452 46.9807 113.392 43.3821 113.867 41.4132C112.27 41.0026 110.828 40.7749 109.122 40.724L109.117 47.3669H109.118ZM109.106 19.6536C110.246 19.9947 112.691 19.387 113.869 19.1194C113.387 17.0969 110.984 13.0811 109.135 13.1994L109.106 19.6536H109.106ZM27.503 19.7413C29.2352 19.779 30.6438 19.3794 32.2719 19.1566C31.7987 17.1465 29.7571 13.5254 27.5419 13.1201L27.503 19.7413ZM27.5103 47.3315C28.9196 47.1738 29.734 45.9867 30.4162 45.1318C30.8794 44.5511 32.0153 42.5339 32.2136 41.4203C30.5716 41.1355 29.2345 40.7749 27.4862 40.7435L27.5107 47.331L27.5103 47.3315ZM21.1079 19.0485C22.0565 19.4618 24.8245 19.9429 25.8126 19.6598L25.8166 13.2038C23.7777 13.3907 21.7625 16.8271 21.1075 19.0485H21.1079ZM102.82 41.6103C103.512 43.9752 105.351 46.8584 107.427 47.3315L107.426 40.7541C106.007 40.8183 103.895 40.8436 102.82 41.6103ZM102.794 18.9343C103.508 19.4893 106.385 19.6966 107.413 19.7178L107.434 13.1768C105.28 13.629 103.518 16.6247 102.794 18.9343H102.794ZM21.1438 41.3485C21.451 42.77 22.305 44.2259 22.9874 45.1101C23.6622 45.9845 24.3799 47.1415 25.7745 47.339L25.8276 40.7483L21.1442 41.3485H21.1438ZM48.8509 9.39662L50.9903 9.39884L50.995 6.82396L48.8838 6.84168L48.8509 9.39706V9.39662ZM83.9844 34.2161L86.1278 34.2786L86.0923 31.6842L83.9991 31.69L83.9848 34.2161H83.9844ZM48.8545 53.7915L50.9815 53.8048L50.9653 51.2357L48.897 51.2334L48.8549 53.7915H48.8545ZM84.0167 53.8066L86.1102 53.8043L86.0971 51.2153L84.0529 51.2175L84.0167 53.8066ZM48.852 34.236L51.0038 34.2604L50.962 31.7236L48.9267 31.7347L48.852 34.236ZM84.0214 9.3005L86.1267 9.41124L86.0996 6.85231L84.0431 6.87534L84.0218 9.3005H84.0214ZM102.985 14.029C102.143 15.4717 101.438 16.9392 100.869 18.4315C100.1 18.2676 99.3374 17.904 98.579 17.3414C99.8472 15.8682 101.316 14.7639 102.985 14.029ZM117.664 17.4012C116.827 17.7241 116.014 18.0829 115.263 18.4873C114.771 16.9374 113.966 15.3805 113.016 14.0175C114.853 14.771 116.463 15.9598 117.664 17.4012ZM102.872 46.0855C102.031 44.7225 101.325 43.3361 100.756 41.9257C99.988 42.0807 99.2249 42.4236 98.4665 42.9556C99.7347 44.3478 101.203 45.3909 102.872 46.085V46.0855ZM117.552 42.8993C116.715 42.5946 115.902 42.2552 115.151 41.873C114.658 43.3374 113.854 44.8089 112.904 46.0965C114.741 45.3847 116.351 44.2614 117.552 42.8993ZM21.5378 14.0295C20.6959 15.4722 19.9904 16.9397 19.4215 18.432C18.6533 18.2681 17.8902 17.9044 17.1318 17.3419C18.4 15.8686 19.8687 14.7643 21.5378 14.0295ZM36.2171 17.4017C35.38 17.7246 34.567 18.0834 33.8164 18.4878C33.3238 16.9379 32.5189 15.3809 31.5689 14.0179C33.4063 14.7714 35.0164 15.9603 36.2171 17.4017ZM21.4257 46.0859C20.5838 44.7229 19.8782 43.3365 19.3094 41.9261C18.5411 42.0812 17.778 42.424 17.0197 42.956C18.2879 44.3482 19.7565 45.3913 21.4257 46.0855V46.0859ZM36.105 42.8998C35.2678 42.595 34.4549 42.2557 33.7042 41.8734C33.2116 43.3378 32.4067 44.8093 31.4567 46.097C33.2941 45.3852 34.9042 44.2618 36.105 42.8998ZM79.4201 4.82979H77.8217V6.7615H79.4201V4.82979ZM75.0273 4.90154H73.4289V6.83326H75.0273V4.90154ZM79.4798 9.24469H77.8814V11.1764H79.4798V9.24469ZM75.0867 9.31645H73.4883V11.2482H75.0867V9.31645ZM79.4893 29.4513H77.8909V31.383H79.4893V29.4513ZM75.0962 29.523H73.4978V31.4548H75.0962V29.523ZM79.5487 33.8666H77.9503V35.7983H79.5487V33.8666ZM75.1556 33.9384H73.5572V35.8701H75.1556V33.9384ZM79.5502 49.354H77.9518V51.2857H79.5502V49.354ZM75.1574 49.4258H73.559V51.3575H75.1574V49.4258ZM79.6099 53.7689H78.0115V55.7006H79.6099V53.7689ZM75.2171 53.8407H73.6187V55.7724H75.2171V53.8407Z" fill="#C9A35B"/>
</svg>
