<svg width="114" height="73" viewBox="0 0 114 73" fill="none" xmlns="http://www.w3.org/2000/svg">
<path fill-rule="evenodd" clip-rule="evenodd" d="M7.66143 27.2318C7.78146 32.9788 6.49113 38.0474 11.3831 40.5735C14.2727 42.0657 24.3582 41.356 28.4547 41.3652C42.7245 41.3975 40.4673 41.9187 53.9562 40.159C56.1716 39.8699 59.8395 39.0912 61.9602 39.0915C61.9811 42.0293 62.0125 44.9924 62.0045 47.9278C61.9968 50.7776 59.792 49.7898 58.9902 53.8733C57.9081 59.3841 62.1424 63.5538 67.5603 63.5195C69.5851 63.5068 69.8288 63.1404 71.4054 62.6707C72.5167 62.3397 102.352 62.4104 103.944 62.6738C104.366 68.3563 102.227 72.696 108.523 72.6853C115.381 72.674 113.683 75.0352 113.683 57.9599C113.683 55.5145 113.985 44.8853 113.436 43.5315C112.71 43.2393 106.467 42.6442 104.919 44.3095C103.206 46.1509 104.182 50.1531 103.968 52.824L75.7052 52.8913C74.2275 50.8717 74.6341 50.2183 72.4428 49.0076L72.422 37.429C79.8207 36.298 87.281 35.0908 94.6087 34.002C98.5053 33.4231 101.153 32.0387 101.924 28.6014C102.313 26.862 102.301 6.27068 101.682 4.54155C100.448 1.0905 97.911 -0.00239952 93.3956 3.9539e-06L15.1875 0.215288C7.76683 0.225588 -1.89679 -1.39814 0.323791 9.67709C1.00336 13.0663 1.68366 16.6795 2.29369 20.0265C3.0706 24.2878 3.15623 26.395 7.66216 27.2311L7.66143 27.2318ZM56.153 25.5974C62.8703 25.6046 62.7664 25.3351 62.7576 33.0636C62.7576 34.7838 62.5728 35.7984 61.8786 37.0857C63.0705 37.223 81.0185 34.3557 83.5911 33.932C87.0782 33.3575 90.8731 32.7793 94.3994 32.2537C101.138 31.249 100.168 27.4381 100.165 21.2708L100.173 8.60411C100.169 0.95281 96.0601 1.76759 90.1361 1.77377L42.0284 1.84107C46.182 5.4274 45.82 9.40687 47.2458 15.4365C47.7607 17.6137 48.2525 21.0373 49.017 22.9628C50.1488 25.8134 52.3314 25.5933 56.153 25.5974ZM14.0846 5.29762C8.0519 6.72288 9.5651 11.524 9.56766 18.4316C9.56876 21.0455 9.35761 34.3897 9.6822 35.8142C10.8467 40.923 18.4525 39.6134 24.2645 39.6152C27.138 39.6162 41.1205 39.7834 42.7508 39.5118C48.5979 38.5384 47.0939 32.1654 47.0983 26.2934C47.1019 21.5335 45.4643 15.8145 44.4342 11.2854C42.7761 3.9963 44.7244 5.0892 32.4113 5.09709C28.8008 5.0995 16.6411 4.69366 14.0846 5.29762ZM25.3079 8.81493C18.2271 10.301 11.8248 16.4642 13.8207 25.1823C15.3006 31.6459 22.2749 37.6615 31.2307 35.8757C38.1871 34.4889 44.3035 28.0338 42.5953 19.5846C41.2859 13.1093 34.0577 6.97868 25.3079 8.81493ZM26.0613 10.4617C22.2357 11.1844 19.8417 12.7786 18.0273 14.9816C11.0959 23.3982 18.4664 35.9571 30.3752 34.23C36.5322 33.3369 42.1404 27.4704 40.8603 20.3451C39.8016 14.4528 33.6079 9.03571 26.0613 10.4617ZM26.619 13.7846C14.1793 16.1325 18.2787 33.0035 30.0235 30.8153C34.2945 30.0195 38.2731 25.9819 37.2371 20.6802C36.3976 16.3838 31.8927 12.7893 26.619 13.7846ZM74.1635 60.6872C77.2184 60.9083 101.997 61.0394 103.987 60.7043L104.002 54.7859L76.0489 54.6524C75.979 58.5209 75.3536 58.2693 74.1635 60.6872ZM105.947 55.3394L105.943 64.5118C105.943 70.6503 104.537 71.2841 111.708 70.791C111.998 63.7502 111.793 52.1212 111.796 45.0772C108.48 44.9657 105.934 44.2817 105.917 47.466C105.903 50.0871 105.95 52.7172 105.947 55.3394ZM7.65302 25.3574C7.67936 23.196 7.51615 10.12 7.83599 8.70541C8.29013 6.69747 9.16951 6.44957 9.92739 5.2492L5.01233 5.14413C4.35143 3.09671 5.41451 3.34599 7.26987 3.35286L21.472 3.34393C27.7528 3.34393 34.0643 3.38032 40.3418 3.31096C38.0487 1.18114 28.1897 2.01069 24.0322 2.01858C20.788 2.02442 8.56679 1.9015 6.35756 2.10889C-0.425673 2.74546 2.33541 9.79487 2.90153 13.1539C3.29017 15.4585 3.73114 17.8228 4.21676 20.2297C4.65041 22.3805 4.96805 25.5988 7.65302 25.3574ZM65.7613 49.4196C56.9295 51.7493 60.7423 63.7598 69.2572 61.5133C77.4157 59.3608 74.4175 47.1363 65.7613 49.4196ZM47.3709 39.1286C48.7948 39.1568 58.0976 37.9276 58.8035 37.5056C61.2656 36.0336 60.8854 32.8089 60.8649 30.0002C60.8616 29.5796 60.8682 28.9125 60.7932 28.5142C60.2651 25.7155 54.7598 28.0565 51.1424 27.0645C50.2015 26.8067 49.75 26.361 49.0375 26.1488C48.4494 32.8295 50.2711 34.3529 47.3709 39.1286ZM21.7044 19.3659C20.75 20.2696 20.7822 22.9927 21.1445 24.2072C22.5698 28.9825 28.7803 30.6996 32.6093 27.7883C38.2134 23.527 35.4549 15.0296 27.0414 15.4448C27.1888 16.0971 30.0388 18.7245 27.06 20.8361C24.6521 22.5429 22.8527 21.0971 21.7044 19.3659ZM63.8705 47.9443C65.0265 47.8371 65.6724 47.4454 67.0861 47.3911C68.6571 47.331 69.3114 47.6675 70.4623 47.787L70.5487 37.7542L64.9811 38.5127C63.8467 38.6723 63.884 38.5621 63.8174 39.587C63.6553 42.0983 63.8474 45.356 63.8705 47.9443ZM91.4656 7.14589C87.237 8.37166 89.0049 14.8909 93.9189 13.4832C95.5389 13.0193 96.8154 11.2696 96.056 9.16687C95.5056 7.64375 93.8153 6.46502 91.4656 7.14589ZM66.5218 52.5215C62.8326 53.4115 63.7486 59.2279 68.1462 58.3297C72.2613 57.4891 70.6332 51.5296 66.5218 52.5215ZM24.7875 19.8479C25.7503 19.8479 26.5309 19.1156 26.5309 18.2118C26.5309 17.3085 25.7503 16.5761 24.7875 16.5761C23.8247 16.5761 23.0441 17.3085 23.0441 18.2118C23.0441 19.1152 23.8247 19.8479 24.7875 19.8479ZM92.7464 11.9906C93.7092 11.9906 94.4898 11.2582 94.4898 10.3549C94.4898 9.45151 93.7092 8.71914 92.7464 8.71914C91.7836 8.71914 91.003 9.45151 91.003 10.3549C91.003 11.2582 91.7836 11.9906 92.7464 11.9906ZM67.3195 57.1159C68.2823 57.1159 69.0629 56.3835 69.0629 55.4802C69.0629 54.5768 68.2823 53.8441 67.3195 53.8441C66.3567 53.8441 65.5762 54.5765 65.5762 55.4802C65.5762 56.3835 66.3567 57.1159 67.3195 57.1159ZM42.9045 35.5801C43.475 35.5801 43.9376 35.1461 43.9376 34.6108C43.9376 34.0755 43.475 33.6415 42.9045 33.6415C42.334 33.6415 41.8714 34.0755 41.8714 34.6108C41.8714 35.1461 42.334 35.5801 42.9045 35.5801Z" fill="#C9A35B"/>
</svg>
