<svg width="87" height="76" viewBox="0 0 87 76" fill="none" xmlns="http://www.w3.org/2000/svg">
<path fill-rule="evenodd" clip-rule="evenodd" d="M72.0031 0.225603C71.6349 0.341891 66.6952 1.83977 61.0259 3.55423C30.083 12.912 14.6489 17.5782 8.41598 19.4604C2.35017 21.2919 1.36009 21.6664 0.718595 22.3716C-0.188759 23.3694 -0.240701 24.4782 0.584726 25.2255C0.915914 25.5253 3.08671 26.8181 5.40824 28.098C10.2684 30.7777 11.1075 31.6648 9.15091 32.0548C8.73913 32.1369 7.71237 32.461 6.86954 32.7752C5.61038 33.2446 5.21762 33.5492 4.66769 34.4843C4.29955 35.11 3.99835 35.8605 3.99835 36.1518C3.99835 36.7591 7.36297 48.3301 7.74798 49.0468C7.88774 49.3071 8.37581 49.8333 8.83203 50.2158C9.85987 51.0773 11.1846 51.1229 13.6325 50.3814L15.3683 49.8557L16.4437 50.889C18.9417 53.2897 20.9848 53.705 24.614 52.5501C27.3968 51.6646 45.1543 46.3772 45.3458 46.3772C45.4111 46.3772 45.5479 46.9472 45.6499 47.6441C46.1048 50.7516 48.4218 53.3441 51.2962 53.9621L52.1422 54.1437L52.2332 58.1098C52.3326 62.4245 52.4635 62.8293 54.1676 64.0973C54.8854 64.6313 55.2619 64.6494 67.2031 64.7217L79.4996 64.7961L79.5002 68.8558C79.5005 73.4447 79.7462 74.3123 81.3465 75.3773C82.082 75.8667 82.6254 75.9827 84.1831 75.9827C87.2219 75.9827 86.9962 77.0163 86.9962 63.0926C86.9962 51.3026 86.9903 51.1722 86.4276 50.6116C85.9223 50.1083 85.6377 50.0595 83.8664 50.1726C81.6081 50.3171 80.7216 50.7927 79.9687 52.2639C79.5765 53.0299 79.5005 53.9261 79.5002 57.7793L79.4996 62.3802L68.1878 62.4098C55.1944 62.4437 55.6849 62.4621 55.0688 61.9142C54.6643 61.5542 54.6003 60.9805 54.6003 57.7118V53.9263L55.7382 53.419C57.2372 52.7506 58.7852 51.341 59.4972 49.996C59.9753 49.0926 60.0883 48.3437 60.1737 45.521C60.2377 43.4014 60.3914 42.0393 60.5839 41.8865C60.7534 41.7521 64.3092 40.6436 68.4858 39.4231C76.4523 37.0955 77.7832 36.5159 79.0943 34.8036C80.777 32.6058 80.9382 30.6241 79.7543 26.6823C79.3053 25.1873 79.0022 23.861 79.0804 23.7348C79.1588 23.6084 79.7971 23.3611 80.4991 23.1851C82.2667 22.7418 83.7189 21.8755 84.3034 20.9159C85.3499 19.1966 85.2993 18.7941 83.1023 11.361C81.9655 7.5155 80.8145 3.93216 80.5446 3.39766C79.9082 2.13849 78.1741 0.670217 76.8603 0.278143C75.6997 -0.0683215 73.0256 -0.0971245 72.0031 0.225603ZM59.955 6.2686C52.9604 8.3938 37.2979 13.1278 25.1494 16.7887C13.0009 20.4499 2.88403 23.5102 2.66744 23.59C2.42969 23.6775 3.43637 24.3472 5.21092 25.2818C6.82643 26.1326 11.6422 28.8048 15.9126 31.2199C20.1829 33.6353 24.0865 35.7531 24.5869 35.9267C25.0876 36.1001 26.3079 36.242 27.2991 36.242C29.2056 36.242 30.9523 35.7464 56.7422 27.8887C62.2642 26.2059 69.9147 23.8999 73.7433 22.764C77.572 21.628 81.041 20.5294 81.4522 20.3227C82.9384 19.5754 82.9162 19.3319 80.6956 11.9641C79.5692 8.2271 78.4057 4.77579 78.1096 4.29436C77.3685 3.08907 75.8416 2.36467 74.0887 2.38707C73.0662 2.39987 69.1351 3.47981 59.955 6.2686ZM70.7982 26.027C31.5014 37.9687 29.8324 38.4557 27.7858 38.5819C26.6453 38.652 25.1489 38.5675 24.4113 38.3912C23.6624 38.2122 20.8865 36.8199 18.0269 35.1887C15.2443 33.6015 12.9286 32.3375 12.8815 32.3799C12.6912 32.5506 17.2245 48.0116 17.6866 48.7688C18.2951 49.7658 19.5522 50.5569 20.8831 50.7809C21.8619 50.9458 24.9901 50.0408 73.5278 35.5549C76.8172 34.5734 78.161 33.1128 78.161 30.5201C78.161 29.4015 76.9765 24.803 76.6049 24.4789C76.5037 24.3907 73.8906 25.0873 70.7982 26.027ZM8.91771 34.4747C7.08694 35.1079 6.40796 35.5722 6.40796 36.1918C6.40796 36.6108 8.00795 42.0665 9.24917 45.8798C9.61355 46.9997 10.1372 48.1191 10.413 48.3674C10.8837 48.792 11.0077 48.791 12.4762 48.3488C13.3353 48.0898 14.145 47.7881 14.2754 47.6785C14.5021 47.4873 11.1014 34.4227 10.734 34.0746C10.6371 33.9826 9.81971 34.1626 8.91771 34.4747ZM53.5293 43.869C51.3942 44.5147 49.1888 45.1698 48.629 45.3242L47.6105 45.6053L47.7939 46.8581C48.2346 49.8701 50.1452 51.7115 52.8292 51.7115C54.8913 51.7115 56.5218 50.7337 57.4667 48.9307C58.0447 47.8279 58.3084 42.6328 57.7847 42.6688C57.5794 42.6829 55.6645 43.223 53.5293 43.869ZM82.2305 52.8317C81.9923 53.0691 81.9093 55.7149 81.9093 63.0851V73.0187L82.5044 73.4337C82.8316 73.662 83.434 73.849 83.8431 73.849H84.5866V63.1803V52.5117H83.5692C83.0097 52.5117 82.4072 52.6557 82.2305 52.8317Z" fill="#C9A35B"/>
</svg>
