<svg width="1032" height="238" viewBox="0 0 1032 238" fill="none" xmlns="http://www.w3.org/2000/svg">
<path d="M977.448 0.323242C1006.18 -2.97993 1031.5 19.4461 1031.5 48.3682V189.852C1031.5 216.361 1010.01 237.852 983.5 237.852H48.5C21.9904 237.852 0.500187 216.361 0.5 189.852V48.3682C0.5 19.4461 25.8189 -2.97993 54.5518 0.323242C143.368 10.5337 324.817 29.5943 470.053 33.2368C478.89 33.4584 486.528 39.0194 493.328 44.6692C499.477 49.7789 507.38 52.8516 516 52.8516C524.62 52.8516 532.522 49.7788 538.671 44.6691C545.471 39.0193 553.109 33.4584 561.946 33.2368C707.182 29.5944 888.632 10.5337 977.448 0.323242Z" fill="#151517"/>
</svg>
