<svg width="172" height="70" viewBox="0 0 172 70" fill="none" xmlns="http://www.w3.org/2000/svg">
<path d="M23.8281 23.4057C25.0983 23.4057 26.0797 23.7521 26.7725 24.4449C27.5038 25.1377 27.8695 26.0999 27.8695 27.3316C27.8695 27.6395 27.831 27.9666 27.754 28.313C27.7155 28.6209 27.6578 28.8904 27.5808 29.1213C27.0804 29.0443 26.5224 28.9866 25.9065 28.9481C25.2907 28.8711 24.5594 28.8326 23.7127 28.8326C22.0577 28.8326 20.3834 28.9866 18.6899 29.2945C16.9964 29.5639 15.3799 29.7948 13.8403 29.9873C12.9551 32.0272 12.1468 34.0094 11.4155 35.9338C10.6842 37.8197 10.0492 39.5517 9.51034 41.1298C9.00999 42.7078 8.60586 44.0742 8.29795 45.2288C8.02853 46.3835 7.87457 47.2495 7.83609 47.8268C10.9537 47.1725 14.0905 46.6144 17.2466 46.1525C20.4411 45.6907 23.7897 45.3443 27.2921 45.1133C27.7155 45.7677 28.0619 46.4797 28.3313 47.2495C28.6392 48.0192 28.7932 48.8468 28.7932 49.732C28.7932 49.9629 28.7932 50.2131 28.7932 50.4825C28.7932 50.7519 28.7547 51.0214 28.6777 51.2908C27.6 51.2523 26.4646 51.2138 25.2715 51.1753C24.0783 51.1753 22.5195 51.1753 20.5951 51.1753C19.325 51.1753 18.1126 51.1946 16.9579 51.2331C15.8417 51.31 14.7063 51.4063 13.5517 51.5217C12.397 51.6372 11.1654 51.7911 9.85674 51.9836C8.58661 52.176 7.14329 52.407 5.52676 52.6764C3.75628 51.9836 2.04353 50.2901 0.388521 47.5959C1.04283 46.2103 1.94731 44.1126 3.10197 41.303C4.29512 38.4548 5.79618 34.6637 7.60515 29.9296C5.87316 29.3907 4.73774 28.4285 4.1989 27.0429C4.39135 26.8505 4.94943 26.6195 5.87316 26.3501C6.79689 26.0422 7.93231 25.7343 9.27941 25.4264C9.85674 23.9253 10.3378 22.6167 10.7227 21.5005C11.1461 20.3844 11.5118 19.3452 11.8197 18.3829C12.1276 17.3822 12.397 16.42 12.6279 15.4963C12.8973 14.5341 13.1475 13.4949 13.3785 12.3787C12.0314 12.3017 10.9729 11.9361 10.2031 11.2818C9.43337 10.589 9.04848 9.70374 9.04848 8.62606C9.04848 8.31815 9.08697 7.9525 9.16395 7.52913C9.27941 7.10575 9.39488 6.74011 9.51034 6.4322C10.2801 6.54767 11.0114 6.62465 11.7042 6.66313C12.4355 6.70162 13.3785 6.72087 14.5331 6.72087C16.9579 6.72087 19.2287 6.66313 21.3456 6.54767C23.4625 6.39371 25.3677 6.23976 27.0612 6.0858C28.7932 5.93185 30.275 5.79714 31.5066 5.68167C32.7383 5.52772 33.6812 5.45074 34.3356 5.45074C35.2208 5.45074 36.0098 5.9126 36.7026 6.83633C37.3954 7.76006 37.915 9.06868 38.2614 10.7622C37.0683 10.6467 36.0868 10.5697 35.317 10.5312C34.5857 10.4928 33.9314 10.4735 33.3541 10.4735C31.2372 10.4735 29.2935 10.589 27.5231 10.8199C25.7911 11.0124 24.1168 11.224 22.5003 11.455C22.2693 11.8014 21.9999 12.244 21.692 12.7828C21.4226 13.3217 21.057 14.0722 20.5951 15.0344C20.1332 15.9966 19.5559 17.209 18.8631 18.6716C18.2088 20.1342 17.4005 21.9624 16.4383 24.1562C17.9009 23.9253 19.2672 23.7521 20.5374 23.6367C21.846 23.4827 22.9429 23.4057 23.8281 23.4057ZM52.8895 47.6536C52.4661 48.3079 51.7926 48.8275 50.8689 49.2124C49.9836 49.6358 49.1369 49.8859 48.3286 49.9629C47.6743 49.1931 46.943 48.154 46.1347 46.8453C45.3265 45.4982 44.5567 43.9394 43.8254 42.169C41.8625 43.9394 39.8996 45.556 37.9367 47.0185C35.9737 48.4426 34.1455 49.655 32.452 50.6557C32.0286 50.5787 31.6822 50.3478 31.4128 49.9629C31.1434 49.578 30.9894 49.0777 30.951 48.4619C31.7207 48.0385 32.6252 47.4804 33.6644 46.7876C34.7421 46.0948 35.8198 45.3443 36.8975 44.536C38.0136 43.6893 39.0721 42.8233 40.0728 41.938C41.112 41.0143 41.9972 40.1291 42.7285 39.2823C42.0742 37.7428 41.4584 36.1647 40.881 34.5482C40.3422 32.8932 39.8611 31.3151 39.4377 29.8141C39.0528 28.2745 38.7449 26.8889 38.514 25.6573C38.2831 24.3872 38.1676 23.3672 38.1676 22.5975C38.1676 22.0586 38.2253 21.7122 38.3408 21.5583C38.4947 21.3658 38.8219 21.2696 39.3222 21.2696C39.7071 21.2696 40.169 21.3081 40.7078 21.3851C41.2852 21.462 41.8625 21.5583 42.4398 21.6737C43.0172 21.7892 43.5945 21.9239 44.1718 22.0779C44.7492 22.1933 45.2495 22.328 45.6729 22.482C45.5959 22.9054 45.5574 23.271 45.5574 23.5789C45.5574 23.8868 45.5574 24.3294 45.5574 24.9068C45.5574 26.4078 45.6729 27.9474 45.9038 29.5254C46.1732 31.065 46.5966 32.7392 47.1739 34.5482C48.752 32.7392 50.2146 30.7378 51.5617 28.544C52.9088 26.3116 54.2751 23.6559 55.6607 20.5768C56.6229 20.7692 57.4504 21.0579 58.1432 21.4428C58.836 21.7892 59.2786 22.1741 59.4711 22.5975C59.0477 24.3679 57.8546 26.6003 55.8916 29.2945C53.9287 31.9887 51.4269 34.8561 48.3863 37.8967C48.9252 39.3593 49.5795 40.9181 50.3493 42.5731C51.119 44.1896 51.9658 45.8831 52.8895 47.6536ZM55.3017 67.1096C54.7628 66.9557 54.4549 66.3784 54.3779 65.3777C54.224 64.8773 54.1085 64.2807 54.0316 63.5879C53.9931 62.8951 53.9738 62.1061 53.9738 61.2209C53.9738 60.4126 54.1085 59.2964 54.3779 57.8724C54.6474 56.4868 55.013 54.9087 55.4749 53.1382C55.9752 51.3678 56.5718 49.4626 57.2646 47.4227C57.9574 45.3443 58.7272 43.2466 59.5739 41.1298C60.6131 38.474 61.5176 36.184 62.2874 34.2595C63.0572 32.2966 63.6922 30.6031 64.1926 29.179C64.7314 27.7549 65.1548 26.581 65.4627 25.6573C65.8091 24.7336 66.0785 23.9446 66.271 23.2903C66.4249 22.8284 66.6558 22.2703 66.9638 21.616C67.2717 20.9617 67.6181 20.3074 68.0029 19.6531C68.4263 18.9603 68.8497 18.3252 69.2731 17.7479C69.6965 17.1321 70.0813 16.6702 70.4277 16.3623C71.7748 16.5547 73.045 16.9011 74.2381 17.4015C75.4313 17.9018 76.1626 18.3829 76.432 18.8448C75.8931 19.3452 75.2773 20.1342 74.5845 21.2119C73.8917 22.2511 73.2182 23.4057 72.5639 24.6758C71.9096 25.9075 71.313 27.1776 70.7741 28.4862C70.2353 29.7948 69.8312 30.9495 69.5617 31.9502C69.9466 31.2959 70.447 30.5839 71.0628 29.8141C71.6786 29.0443 72.6216 27.9859 73.8917 26.6388C75.3158 25.1762 76.6437 24.06 77.8753 23.2903C79.1454 22.482 80.2424 22.0779 81.1661 22.0779C82.6287 22.0779 83.8218 22.482 84.7455 23.2903C85.7078 24.0985 86.1889 25.1377 86.1889 26.4078C86.1889 29.179 85.727 31.931 84.8033 34.6637C83.8795 37.3579 82.5517 39.8019 80.8197 41.9958C80.1654 42.8425 79.3956 43.6508 78.5104 44.4206C77.6251 45.1903 76.7014 45.8831 75.7392 46.4989C74.777 47.0763 73.834 47.5381 72.9103 47.8845C71.9865 48.2309 71.159 48.4041 70.4277 48.4041C69.7349 48.4041 69.1191 48.2694 68.5803 48C68.0799 47.6921 67.7335 47.3264 67.5411 46.9031C69.0421 46.0178 70.5047 44.7862 71.9288 43.2082C73.3529 41.6301 74.6615 39.8212 75.8546 37.7812C77.0863 35.7029 78.1447 33.4705 79.03 31.0842C79.9537 28.6979 80.6465 26.2731 81.1084 23.8098C79.6458 24.5796 78.3179 25.4264 77.1248 26.3501C75.9701 27.2353 74.8154 28.4092 73.6608 29.8718C72.2752 31.5653 71.1783 32.9317 70.37 33.9709C69.5617 35.0101 68.8882 35.8953 68.3493 36.6266C67.849 37.3579 67.4256 38.0507 67.0792 38.705C66.7713 39.3208 66.4249 40.0906 66.04 41.0143C65.5012 42.2459 64.8661 43.8817 64.1348 45.9216C63.442 47.923 62.7108 50.1746 61.941 52.6764C61.2097 55.1781 60.4592 57.8339 59.6894 60.6435C58.9581 63.4917 58.2461 66.3206 57.5533 69.1303C57.1299 69.0533 56.7642 68.7454 56.4563 68.2066C56.1484 67.8602 55.9175 67.61 55.7635 67.456C55.6481 67.3021 55.4941 67.1866 55.3017 67.1096ZM88.2122 44.3051C88.2122 42.6116 88.6164 40.2445 89.4246 37.2039C90.2329 34.1248 91.3683 30.5454 92.8309 26.4656C95.2172 19.961 97.4495 14.5533 99.5279 10.2426C101.645 5.89336 103.704 2.50635 105.705 0.0815649C106.167 0.158541 106.725 0.350985 107.38 0.658895C108.072 0.966805 108.746 1.3132 109.4 1.69809C110.055 2.04449 110.632 2.41013 111.132 2.79502C111.671 3.1799 112.017 3.48781 112.171 3.71875C109.169 7.25971 106.533 11.0701 104.262 15.1499C101.991 19.2297 99.9128 23.9061 98.0268 29.179C96.4103 33.7207 95.1787 37.8197 94.3319 41.4762C93.4852 45.0941 93.0618 48.1155 93.0618 50.5403C93.0618 51.1946 93.0618 51.5987 93.0618 51.7526C93.0618 51.9066 93.081 52.0606 93.1195 52.2145C92.5807 52.1375 92.1188 52.0028 91.7339 51.8104C91.349 51.6179 91.0989 51.387 90.9834 51.1176C90.9064 50.9251 90.6947 50.6365 90.3483 50.2516C90.0019 49.9052 89.694 49.6358 89.4246 49.4433C89.0782 49.2124 88.7895 48.6158 88.5586 47.6536C88.3277 46.6529 88.2122 45.5367 88.2122 44.3051ZM108.501 50.0207C106.307 49.7897 104.556 48.8275 103.247 47.134C101.939 45.4405 101.284 43.2851 101.284 40.6679C101.284 39.1284 101.515 37.5311 101.977 35.8761C102.439 34.221 103.093 32.6238 103.94 31.0842C104.787 29.5062 105.787 28.0244 106.942 26.6388C108.097 25.2532 109.348 24.06 110.695 23.0593C112.812 21.4813 114.794 20.6923 116.641 20.6923C117.873 21.3466 119.085 22.7129 120.278 24.7913C120.471 24.7913 120.644 24.7913 120.798 24.7913C120.952 24.7528 121.125 24.7336 121.318 24.7336C123.358 24.7336 124.377 26.5425 124.377 30.1605C124.377 32.5853 123.973 34.8946 123.165 37.0885C122.395 39.2438 121.298 41.2067 119.874 42.9772C118.489 44.7477 116.814 46.2488 114.852 47.4804C112.927 48.6736 110.81 49.5203 108.501 50.0207ZM111.445 31.8347C110.791 32.72 110.175 33.6822 109.598 34.7214C109.02 35.7606 108.52 36.819 108.097 37.8967C107.673 38.9359 107.346 39.9559 107.115 40.9566C106.884 41.9188 106.769 42.7848 106.769 43.5546C106.769 44.4783 106.923 45.3635 107.231 46.2103C107.539 47.057 107.885 47.5381 108.27 47.6536C110.002 47.2687 111.58 46.5567 113.004 45.5175C114.467 44.4398 115.718 43.1119 116.757 41.5339C117.834 39.9559 118.662 38.1661 119.239 36.1647C119.855 34.1633 120.163 32.0272 120.163 29.7564C120.163 28.7556 120.105 27.9666 119.99 27.3893C119.874 26.812 119.682 26.3116 119.412 25.8882C117.719 26.3886 116.199 27.1969 114.852 28.313C113.543 29.4292 112.407 30.6031 111.445 31.8347ZM125.787 46.8453C125.979 45.7292 126.306 44.2666 126.768 42.4576C127.268 40.6102 127.846 38.6665 128.5 36.6266C129.154 34.5482 129.847 32.4698 130.578 30.3914C131.31 28.313 132.022 26.4463 132.714 24.7913C133.215 23.5982 133.657 22.6744 134.042 22.0201C134.427 21.3273 134.851 20.75 135.312 20.2881C135.851 20.3651 136.409 20.4998 136.987 20.6923C137.564 20.8847 138.122 21.1156 138.661 21.3851C139.2 21.6545 139.681 21.9431 140.104 22.2511C140.528 22.5205 140.855 22.7899 141.086 23.0593C140.047 24.291 139.123 25.6958 138.315 27.2738C137.545 28.8519 136.756 30.8725 135.948 33.3358C138.026 31.4883 139.854 29.7179 141.432 28.0244C143.049 26.3309 144.55 24.4449 145.935 22.3665C146.166 22.1741 146.57 22.0779 147.148 22.0779C147.687 22.0779 148.206 22.1741 148.707 22.3665C149.207 22.5205 149.553 22.7514 149.746 23.0593C149.053 24.9068 148.707 26.735 148.707 28.544C148.707 30.2375 148.957 31.5076 149.457 32.3543C149.419 32.5853 149.149 33.0279 148.649 33.6822C148.187 34.3365 147.667 34.9523 147.09 35.5297C146.051 34.9908 145.127 34.2595 144.319 33.3358C143.511 32.3736 142.914 31.3344 142.529 30.2182C140.72 31.4883 139.181 32.7392 137.91 33.9709C136.64 35.164 135.543 36.5111 134.62 38.0122C133.734 39.4748 132.965 41.1683 132.31 43.0927C131.695 45.0171 131.098 47.3072 130.521 49.9629C130.174 49.9244 129.751 49.7897 129.25 49.5588C128.789 49.3663 128.308 49.1162 127.807 48.8083C127.345 48.5004 126.922 48.1732 126.537 47.8268C126.152 47.4804 125.902 47.1532 125.787 46.8453ZM171.125 24.0985C170.972 26.4848 170.548 28.544 169.855 30.276C169.163 31.9695 168.162 33.4705 166.853 34.7791C165.583 36.0493 164.024 37.2039 162.177 38.2431C160.329 39.2823 158.174 40.283 155.711 41.2452C155.711 41.4762 155.691 41.7263 155.653 41.9958C155.653 42.2267 155.653 42.4769 155.653 42.7463C155.653 43.2466 155.691 43.7662 155.768 44.3051C155.845 44.8439 155.98 45.3443 156.173 45.8061C156.365 46.268 156.634 46.6529 156.981 46.9608C157.327 47.2302 157.77 47.3649 158.309 47.3649C159.348 47.3649 160.368 47.134 161.369 46.6721C162.369 46.2103 163.312 45.6522 164.197 44.9979C165.121 44.3051 165.968 43.5738 166.738 42.804C167.546 41.9958 168.258 41.2645 168.874 40.6102C169.259 40.9566 169.586 41.2837 169.855 41.5916C168.123 43.901 166.218 45.8254 164.14 47.3649C162.1 48.866 160.156 49.8282 158.309 50.2516C155.653 49.9437 153.575 48.9815 152.074 47.3649C150.611 45.7099 149.88 43.7278 149.88 41.4184C149.88 39.8404 150.091 38.2431 150.515 36.6266C150.977 34.9716 151.592 33.3935 152.362 31.8925C153.17 30.3529 154.094 28.9096 155.133 27.5625C156.211 26.2154 157.347 25.0415 158.54 24.0408C159.771 23.0401 161.022 22.2511 162.292 21.6737C163.601 21.0964 164.89 20.8077 166.16 20.8077C167.931 21.0387 169.586 22.1356 171.125 24.0985ZM167.142 26.0037C166.103 26.1577 165.025 26.581 163.909 27.2738C162.793 27.9666 161.734 28.8904 160.734 30.045C159.771 31.1997 158.886 32.5468 158.078 34.0863C157.27 35.6259 156.634 37.2809 156.173 39.0514C159.252 37.5118 161.811 35.6259 163.851 33.3935C165.891 31.1227 166.988 28.6594 167.142 26.0037Z" fill="#F0EFEB"/>
</svg>
