<svg width="742" height="308" viewBox="0 0 742 308" fill="none" xmlns="http://www.w3.org/2000/svg">
<path d="M682.982 0.984741C713.265 -5.11784 742 17.9109 742 48.8021V259.568C742 286.077 720.51 307.568 694 307.568H48C21.4904 307.568 6.30391e-05 286.077 0 259.568V48.8021C0 17.9109 28.7352 -5.11784 59.0176 0.984741C126.031 14.4896 238.164 34.6616 331.439 39.5945C340.676 40.083 348.673 46.609 356.796 51.0329C360.879 53.2566 365.758 54.5492 371 54.5492C376.241 54.5492 381.12 53.2565 385.203 51.0329C393.326 46.6088 401.323 40.083 410.56 39.5946C503.835 34.6617 615.969 14.4897 682.982 0.984741Z" fill="#151517"/>
</svg>
