<svg width="373" height="391" viewBox="0 0 373 391" fill="none" xmlns="http://www.w3.org/2000/svg">
<path d="M0 10.1555C7.90946e-06 3.31246 6.67726 -1.57043 13.21 0.467041C39.6014 8.6982 100.887 26.5469 154.099 32.6258C165.255 33.9002 174.831 46.1434 186.052 46.5498C186.201 46.5551 186.35 46.5579 186.5 46.5579C186.63 46.5579 186.759 46.5558 186.888 46.5518C198.114 46.1994 207.738 33.9822 218.899 32.7309C272.08 26.7687 333.349 8.81093 359.76 0.510986C366.299 -1.544 373 3.34118 373 10.1956V380.22C373 385.743 368.523 390.22 363 390.22H10C4.47715 390.22 0 385.743 0 380.22V10.1555Z" fill="#151517"/>
</svg>
