<svg width="77" height="77" viewBox="0 0 77 77" fill="none" xmlns="http://www.w3.org/2000/svg">
<path d="M38.5 48.125C43.8157 48.125 48.125 43.8157 48.125 38.5C48.125 33.1843 43.8157 28.875 38.5 28.875C33.1843 28.875 28.875 33.1843 28.875 38.5C28.875 43.8157 33.1843 48.125 38.5 48.125Z" stroke="#C9A35B" stroke-width="3"/>
<path d="M44.1641 6.90518C42.9847 6.41675 41.4899 6.41675 38.5001 6.41675C35.5102 6.41675 34.0155 6.41675 32.8361 6.90518C31.2639 7.55644 30.0148 8.80561 29.3635 10.3779C29.0662 11.0956 28.9498 11.9303 28.9043 13.1478C28.8374 14.9371 27.9198 16.5932 26.3692 17.4885C24.8186 18.3837 22.9255 18.3503 21.3425 17.5136C20.2654 16.9443 19.4843 16.6277 18.7141 16.5263C17.0268 16.3041 15.3205 16.7613 13.9703 17.7973C12.9577 18.5743 12.2103 19.869 10.7154 22.4582C9.22049 25.0474 8.47304 26.342 8.30644 27.6075C8.08432 29.2947 8.54154 31.0011 9.57755 32.3513C10.0504 32.9676 10.715 33.4855 11.7464 34.1335C13.2627 35.0864 14.2383 36.7095 14.2382 38.5001C14.2381 40.2907 13.2625 41.9134 11.7464 42.866C10.7148 43.5144 10.0501 44.0325 9.57723 44.6489C8.54122 45.9989 8.084 47.7051 8.30615 49.3924C8.47272 50.6577 9.22017 51.9526 10.7151 54.5417C12.21 57.1309 12.9574 58.4258 13.97 59.2025C15.3201 60.2385 17.0265 60.6957 18.7138 60.4736C19.4839 60.3723 20.265 60.0556 21.3421 59.4864C22.9251 58.6497 24.8183 58.6163 26.3691 59.5115C27.9198 60.4069 28.8374 62.063 28.9043 63.8526C28.9499 65.0699 29.0662 65.9047 29.3635 66.6224C30.0148 68.1945 31.2639 69.4438 32.8361 70.0951C34.0155 70.5834 35.5102 70.5834 38.5001 70.5834C41.4899 70.5834 42.9847 70.5834 44.1641 70.0951C45.7362 69.4438 46.9855 68.1945 47.6365 66.6224C47.9339 65.9047 48.0503 65.0699 48.0959 63.8523C48.1626 62.063 49.0802 60.4069 50.6308 59.5115C52.1814 58.616 54.0746 58.6497 55.6579 59.4864C56.735 60.0556 57.5159 60.3719 58.2859 60.4733C59.9731 60.6957 61.6797 60.2385 63.0297 59.2025C64.0423 58.4254 64.7898 57.1309 66.2846 54.5414C67.7797 51.9523 68.5272 50.6577 68.6937 49.3924C68.9157 47.7051 68.4585 45.9986 67.4226 44.6485C66.9497 44.0322 66.2849 43.5141 65.2534 42.866C63.7375 41.9134 62.7618 40.2903 62.7618 38.4998C62.7618 36.7092 63.7375 35.0867 65.2534 34.1342C66.2852 33.4858 66.95 32.968 67.4229 32.3513C68.4589 31.0013 68.9161 29.295 68.694 27.6077C68.5275 26.3423 67.78 25.0476 66.2849 22.4584C64.7901 19.8692 64.0426 18.5746 63.0301 17.7976C61.68 16.7616 59.9735 16.3044 58.2862 16.5265C57.5162 16.6279 56.7353 16.9444 55.6579 17.5137C54.075 18.3504 52.1817 18.3839 50.6311 17.4886C49.0802 16.5933 48.1626 14.937 48.0959 13.1476C48.0503 11.9302 47.9339 11.0956 47.6365 10.3779C46.9855 8.80561 45.7362 7.55644 44.1641 6.90518Z" stroke="#C9A35B" stroke-width="3"/>
</svg>
