<svg width="373" height="695" viewBox="0 0 373 695" fill="none" xmlns="http://www.w3.org/2000/svg">
<path d="M0 10.2334C0 2.45348 8.52929 -2.47021 15.3428 1.28516C44.6834 17.4575 110.638 51.1317 164.708 59.2937C172.525 60.4736 179.252 67.3688 187.151 67.6634C187.267 67.6677 187.383 67.6699 187.5 67.6699C187.661 67.6699 187.821 67.6658 187.981 67.6576C195.854 67.2527 202.502 60.3575 210.291 59.1361C263.943 50.7223 328.623 17.4801 357.623 1.37598C364.44 -2.40954 373 2.51701 373 10.3145V684.539C373 690.062 368.523 694.539 363 694.539H10C4.47722 694.539 0.000104262 690.062 0 684.539V10.2334Z" fill="#151517"/>
</svg>
