<svg width="742" height="447" viewBox="0 0 742 447" fill="none" xmlns="http://www.w3.org/2000/svg">
<path d="M678.214 1.99792C709.745 -7.16125 742 16.31 742 49.1444V398.298C742 424.807 720.51 446.298 694 446.298H48C21.4903 446.298 0 424.807 0 398.298V49.1444C0 16.31 32.255 -7.16125 63.7861 1.99792C130.818 21.4695 238.922 49.3657 329.655 56.5964C339.777 57.403 347.778 65.1228 355.229 72.0212C359.603 76.0708 365.07 78.4764 371 78.4764C376.93 78.4764 382.396 76.0708 386.77 72.0213C394.221 65.1227 402.222 57.403 412.344 56.5964C503.078 49.3659 611.181 21.4696 678.214 1.99792Z" fill="#151517"/>
</svg>
